<svg width="150" height="130" viewBox="0 0 150 130" fill="none" xmlns="http://www.w3.org/2000/svg">
<path d="M42.082 0.1875H42.4336C42.7852 0.1875 44.3672 0.552083 47.1797 1.28125H53.0977L59.8945 1.20312C60.7148 1.20312 61.1185 1.30729 61.1055 1.51562C61.0404 2.19271 61.2292 3.85938 61.6719 6.51562C61.7109 10.6172 61.9648 13.4818 62.4336 15.1094C63.6055 18.8984 64.9336 25.9036 66.418 36.125C66.1966 36.5026 65.3503 36.737 63.8789 36.8281L63.0977 36.75H63L57.8438 37.1406H57.668C56.1966 37.1406 55.5 36.724 55.5781 35.8906L53.918 22.0625C51.6654 21.6458 50.2135 21.4375 49.5625 21.4375H49.3086C48.2409 21.4375 47.681 21.6979 47.6289 22.2188L47.5117 22.6875C47.8112 25.6042 47.9414 27.2708 47.9023 27.6875L47.8438 29.3281L47.5508 31.4375L47.3164 33.8594L47.1992 36.8281C45.5195 37.6094 43.6315 38 41.5352 38C38.5404 37.8698 37.0625 37.6354 37.1016 37.2969C36.8151 34.7448 36.8151 31.9844 37.1016 29.0156L39.6797 11.3594L39.7383 10.8125L39.9727 7.375C40.7409 2.73958 41.2031 0.421875 41.3594 0.421875L42.082 0.1875ZM47.1016 14.875C46.8932 17.0625 47.082 18.1562 47.668 18.1562C48.5013 18.5208 49.5169 18.7031 50.7148 18.7031H51.6719C52.6484 18.7031 53.3841 18.4427 53.8789 17.9219L52.6875 12.8438V10.1094H52.7656L52.6875 10.0312L52.7852 9.09375C52.9154 7.6875 52.3945 6.98438 51.2227 6.98438H50.7734C50.4089 6.98438 49.8945 7.14062 49.2305 7.45312C48.0065 10.3698 47.2969 12.8438 47.1016 14.875ZM69.8164 1.90625H72.5508C74.9206 1.90625 79.6276 2.29688 86.6719 3.07812C87.4792 3.97656 87.8568 5.17448 87.8047 6.67188L87.1797 12.4531L87.5312 16.75C87.4922 17.8177 86.9974 18.5469 86.0469 18.9375C83.9115 19.7839 82.4531 20.4089 81.6719 20.8125C81.112 21.1901 80.8255 21.6068 80.8125 22.0625L80.793 22.1406C80.7799 22.8438 81.4505 23.4688 82.8047 24.0156C83.1042 24.0156 84.4453 25.2656 86.8281 27.7656C89.7839 30.2005 91.2357 32.0755 91.1836 33.3906L91.1641 34.25C90.8385 36.125 90.3372 37.0625 89.6602 37.0625C87.3945 37.2708 85.7279 37.375 84.6602 37.375H84.1719C82.349 37.375 81.444 37.2188 81.457 36.9062L80.4805 31.5156C79.7513 29.5104 78.5794 28.1302 76.9648 27.375L76.1445 27.2188C75.194 27.2188 74.6211 27.7917 74.4258 28.9375V29.4062L75.0312 35.7344L75.0117 35.9688C74.8945 37.2708 74.6797 37.9219 74.3672 37.9219L72.9609 38C70.7344 38 68.8464 37.5312 67.2969 36.5938L67.4531 34.25L67.4727 33.4688C67.5378 31.8542 67.2969 26.8281 66.75 18.3906V16.125L66.7891 15.1094L67.4531 10.2656L67.0039 3.85938C67.043 2.66146 67.2578 2.0625 67.6484 2.0625L69.8164 1.90625ZM74.1523 8C74.5951 9.74479 74.8034 10.9167 74.7773 11.5156L74.4648 16.0469C74.6341 17.9219 75.1549 18.8594 76.0273 18.8594C78.293 17.2188 79.4518 15.6042 79.5039 14.0156L79.5234 13.7031L79.0547 7.84375L79.0742 7.29688C79.0872 6.72396 78.3516 6.38542 76.8672 6.28125H76.7891C75.4089 6.28125 74.5951 6.56771 74.3477 7.14062L74.1523 8ZM95.3438 2.375H96.6328C97.401 2.375 99.8685 2.66146 104.035 3.23438L105.246 3.3125H105.422L110.051 3.15625C110.988 3.15625 111.789 3.36458 112.453 3.78125V4.875C112.453 8.65104 112.336 11.2227 112.102 12.5898L101.555 13.332C100.63 14.2044 100.396 15.9688 100.852 18.625C100.852 19.7188 101.314 20.2656 102.238 20.2656C104.895 20.4349 106.223 20.6693 106.223 20.9688C106.47 21.6979 106.594 22.4271 106.594 23.1562C106.594 25.1875 106.47 26.2031 106.223 26.2031L104.562 26.3594H102.98C102.082 26.3594 101.47 27.349 101.145 29.3281L101.418 30.5L104.289 30.7344L106.711 30.3438C109.003 30.3438 110.148 30.6562 110.148 31.2812C110.578 32.2969 110.793 33.2865 110.793 34.25C110.663 36.0208 110.415 36.9062 110.051 36.9062L108.566 36.8281C107.603 36.8281 103.195 37.1927 95.3438 37.9219L93.0391 38C92.5964 38 92.375 37.6615 92.375 36.9844C92.0104 33.3646 91.8281 29.7188 91.8281 26.0469L92.1016 7.29688L92.0039 3.15625C92.9935 2.63542 94.1068 2.375 95.3438 2.375ZM52.4336 47.6719H52.668C55.2461 47.6719 58.7357 48.1927 63.1367 49.2344V49.3125C59.2435 54.8854 55.9818 59.1302 53.3516 62.0469L51.7891 63.4531C52.362 66.0964 52.9414 69.5859 53.5273 73.9219C54.4128 76.8385 54.8164 79 54.7383 80.4062C54.6732 81.5 54.4583 82.0469 54.0938 82.0469C49.3932 82.6849 45.8646 83.3359 43.5078 84C42.9349 83.0365 42.694 81.7604 42.7852 80.1719L43.3125 75.0156L43.3711 68.6875C43.4362 67.3984 43.7357 65.7839 44.2695 63.8438V63.6094C44.3216 62.8672 43.332 61.487 41.3008 59.4688C41.3138 59.3125 39.8945 57.776 37.043 54.8594C34.8555 52.5026 33.625 50.7318 33.3516 49.5469C34.9922 48.4531 36.9779 47.9062 39.3086 47.9062H39.7773C41.1576 47.9062 41.9193 48.1927 42.0625 48.7656C42.0234 49.4427 42.3359 49.9896 43 50.4062C44.3672 51.9818 45.4219 53.5703 46.1641 55.1719C46.9974 56.7214 47.6419 57.6849 48.0977 58.0625C48.4883 58.0625 48.9635 57.4896 49.5234 56.3438C49.7708 55.4193 50.1159 53.5182 50.5586 50.6406C51.1966 48.6615 51.8216 47.6719 52.4336 47.6719ZM67.3945 48.9219H68.625C72.2318 49.3906 74.3997 49.625 75.1289 49.625H75.4805L81.3594 49H81.7109C82.8698 49 83.6641 49.4948 84.0938 50.4844C84.6146 51.5651 84.9661 54.5339 85.1484 59.3906C86.6589 68.362 87.349 73.9089 87.2188 76.0312L87.1016 77.9062C86.75 80.3542 86.2357 81.5781 85.5586 81.5781C78.332 83.1927 73.9766 84 72.4922 84H71.8672C68.9896 84 66.8607 83.1927 65.4805 81.5781L63.9766 73.0625L63.957 71.8125L64.3086 67.5156L64.3281 54.2344C64.5234 51.1094 64.8815 49.5469 65.4023 49.5469C66.0143 49.1302 66.6784 48.9219 67.3945 48.9219ZM70.5391 56.8906C71.5938 60.5755 72.0755 62.9974 71.9844 64.1562C71.9062 71.3958 72.3164 75.0156 73.2148 75.0156C73.2018 75.276 73.7617 75.5104 74.8945 75.7188H75.0898C76.5612 75.7188 77.7461 74.4948 78.6445 72.0469L78.6836 71.4219L77.7852 62.6719L77.4141 54.7031C76.6328 54.4427 75.9036 54.3125 75.2266 54.3125H74.9141C72.8568 54.3125 71.3984 55.1719 70.5391 56.8906ZM93.0195 48.8438H97.2773C97.4596 48.8438 97.5638 50.0417 97.5898 52.4375C99.2565 63.1797 100.064 69.1693 100.012 70.4062L99.9727 73.1406C100.897 74.026 101.737 74.4688 102.492 74.4688C104.068 74.4688 104.895 73.6875 104.973 72.125V71.9688C105.012 71.2396 104.751 69.1562 104.191 65.7188C104.061 58.6615 103.807 54.2344 103.43 52.4375L103.469 51.8125C103.521 50.6146 104.172 50.0156 105.422 50.0156L106.711 49.9375H107.512C109.634 49.9375 111.171 50.1719 112.121 50.6406C112.551 59.5078 113.13 65.4453 113.859 68.4531C114.81 71.9557 115.253 74.4297 115.188 75.875L115.109 77.5938C115.018 79.4167 114.243 81.0833 112.785 82.5938C109.725 83.0625 105.461 83.2969 99.9922 83.2969C97.2318 83.7656 95.4349 84 94.6016 84C92.1016 84 90.4674 82.3333 89.6992 79C89.1784 77.5156 88.8984 73.6875 88.8594 67.5156V67.3594L89.4062 62.3594L89.6406 53.2969C89.7708 50.3802 90.1354 48.9219 90.7344 48.9219L93.0195 48.8438ZM3.29297 93.9062H6.02734C8.39714 93.9062 13.1042 94.2969 20.1484 95.0781C20.9557 95.9766 21.3333 97.1745 21.2812 98.6719L20.6562 104.453L21.0078 108.75C20.9688 109.818 20.474 110.547 19.5234 110.938C17.388 111.784 15.9297 112.409 15.1484 112.812C14.5885 113.19 14.3021 113.607 14.2891 114.062L14.2695 114.141C14.2565 114.844 14.9271 115.469 16.2812 116.016C16.5807 116.016 17.9219 117.266 20.3047 119.766C23.2604 122.201 24.7122 124.076 24.6602 125.391L24.6406 126.25C24.3151 128.125 23.8138 129.062 23.1367 129.062C20.8711 129.271 19.2044 129.375 18.1367 129.375H17.6484C15.8255 129.375 14.9206 129.219 14.9336 128.906L13.957 123.516C13.2279 121.51 12.056 120.13 10.4414 119.375L9.62109 119.219C8.67057 119.219 8.09766 119.792 7.90234 120.938V121.406L8.50781 127.734L8.48828 127.969C8.37109 129.271 8.15625 129.922 7.84375 129.922L6.4375 130C4.21094 130 2.32292 129.531 0.773438 128.594L0.929688 126.25L0.949219 125.469C1.01432 123.854 0.773438 118.828 0.226562 110.391V108.125L0.265625 107.109L0.929688 102.266L0.480469 95.8594C0.519531 94.6615 0.734375 94.0625 1.125 94.0625L3.29297 93.9062ZM7.62891 100C8.07161 101.745 8.27995 102.917 8.25391 103.516L7.94141 108.047C8.11068 109.922 8.63151 110.859 9.50391 110.859C11.7695 109.219 12.9284 107.604 12.9805 106.016L13 105.703L12.5312 99.8438L12.5508 99.2969C12.5638 98.724 11.8281 98.3854 10.3438 98.2812H10.2656C8.88542 98.2812 8.07161 98.5677 7.82422 99.1406L7.62891 100ZM28.8203 94.375H30.1094C30.8776 94.375 33.3451 94.6615 37.5117 95.2344L38.7227 95.3125H38.8984L43.5273 95.1562C44.4648 95.1562 45.2656 95.3646 45.9297 95.7812V96.875C45.9297 100.651 45.8125 103.223 45.5781 104.59L35.0312 105.332C34.1068 106.204 33.8724 107.969 34.3281 110.625C34.3281 111.719 34.7904 112.266 35.7148 112.266C38.3711 112.435 39.6992 112.669 39.6992 112.969C39.9466 113.698 40.0703 114.427 40.0703 115.156C40.0703 117.188 39.9466 118.203 39.6992 118.203L38.0391 118.359H36.457C35.5586 118.359 34.9466 119.349 34.6211 121.328L34.8945 122.5L37.7656 122.734L40.1875 122.344C42.4792 122.344 43.625 122.656 43.625 123.281C44.0547 124.297 44.2695 125.286 44.2695 126.25C44.1393 128.021 43.8919 128.906 43.5273 128.906L42.043 128.828C41.0794 128.828 36.6719 129.193 28.8203 129.922L26.5156 130C26.0729 130 25.8516 129.661 25.8516 128.984C25.487 125.365 25.3047 121.719 25.3047 118.047L25.5781 99.2969L25.4805 95.1562C26.4701 94.6354 27.5833 94.375 28.8203 94.375ZM53.2148 92.1875H53.5664C53.918 92.1875 55.5 92.5521 58.3125 93.2812H64.2305L71.0273 93.2031C71.8477 93.2031 72.2513 93.3073 72.2383 93.5156C72.1732 94.1927 72.362 95.8594 72.8047 98.5156C72.8438 102.617 73.0977 105.482 73.5664 107.109C74.7383 110.898 76.0664 117.904 77.5508 128.125C77.3294 128.503 76.4831 128.737 75.0117 128.828L74.2305 128.75H74.1328L68.9766 129.141H68.8008C67.3294 129.141 66.6328 128.724 66.7109 127.891L65.0508 114.062C62.7982 113.646 61.3464 113.438 60.6953 113.438H60.4414C59.3737 113.438 58.8138 113.698 58.7617 114.219L58.6445 114.688C58.944 117.604 59.0742 119.271 59.0352 119.688L58.9766 121.328L58.6836 123.438L58.4492 125.859L58.332 128.828C56.6523 129.609 54.7643 130 52.668 130C49.6732 129.87 48.1953 129.635 48.2344 129.297C47.9479 126.745 47.9479 123.984 48.2344 121.016L50.8125 103.359L50.8711 102.812L51.1055 99.375C51.8737 94.7396 52.3359 92.4219 52.4922 92.4219L53.2148 92.1875ZM58.2344 106.875C58.026 109.062 58.2148 110.156 58.8008 110.156C59.6341 110.521 60.6497 110.703 61.8477 110.703H62.8047C63.7812 110.703 64.5169 110.443 65.0117 109.922L63.8203 104.844V102.109H63.8984L63.8203 102.031L63.918 101.094C64.0482 99.6875 63.5273 98.9844 62.3555 98.9844H61.9062C61.5417 98.9844 61.0273 99.1406 60.3633 99.4531C59.1393 102.37 58.4297 104.844 58.2344 106.875ZM80.793 95.0781H83.0586C86.2878 95.0911 91.418 95.7943 98.4492 97.1875C100.546 98.0729 101.581 98.8021 101.555 99.375C103.013 101.172 104.491 104.453 105.988 109.219C106.314 110.664 106.451 111.836 106.398 112.734L106.281 114.609C106.19 116.211 105.285 118.164 103.566 120.469C103.059 120.924 102.609 123.164 102.219 127.188C101.815 128.112 101.223 128.737 100.441 129.062C98.944 129.635 94.3932 129.922 86.7891 129.922L85.1094 130C82.0104 130 80.4805 129.661 80.5195 128.984C80.1419 128.984 79.6536 120.885 79.0547 104.688C78.2604 100.404 77.8828 97.9036 77.9219 97.1875C78 95.8854 78.319 95.2344 78.8789 95.2344C79.2305 95.1302 79.8685 95.0781 80.793 95.0781ZM87.1602 104.688V104.844C87.1081 105.729 87.4206 106.458 88.0977 107.031L87.9219 107.969V108.047C87.8828 108.737 88.1497 110.299 88.7227 112.734C88.5273 116.133 88.9049 118.581 89.8555 120.078H89.9727C91.6393 119.831 93.3385 118.711 95.0703 116.719C96.3594 114.857 97.056 113.06 97.1602 111.328L97.1797 110.938L97.3164 110.625L97.2188 110.312L97.2383 110C98.4883 107.109 96.8737 104.792 92.3945 103.047C91.8867 102.891 91.1315 102.786 90.1289 102.734C88.3841 102.734 87.4922 103.125 87.4531 103.906C87.3099 103.906 87.2122 104.167 87.1602 104.688ZM126.613 93.6719H126.848C129.426 93.6719 132.915 94.1927 137.316 95.2344V95.3125C133.423 100.885 130.161 105.13 127.531 108.047L125.969 109.453C126.542 112.096 127.121 115.586 127.707 119.922C128.592 122.839 128.996 125 128.918 126.406C128.853 127.5 128.638 128.047 128.273 128.047C123.573 128.685 120.044 129.336 117.688 130C117.115 129.036 116.874 127.76 116.965 126.172L117.492 121.016L117.551 114.688C117.616 113.398 117.915 111.784 118.449 109.844V109.609C118.501 108.867 117.512 107.487 115.48 105.469C115.493 105.312 114.074 103.776 111.223 100.859C109.035 98.5026 107.805 96.7318 107.531 95.5469C109.172 94.4531 111.158 93.9062 113.488 93.9062H113.957C115.337 93.9062 116.099 94.1927 116.242 94.7656C116.203 95.4427 116.516 95.9896 117.18 96.4062C118.547 97.9818 119.602 99.5703 120.344 101.172C121.177 102.721 121.822 103.685 122.277 104.062C122.668 104.062 123.143 103.49 123.703 102.344C123.951 101.419 124.296 99.5182 124.738 96.6406C125.376 94.6615 126.001 93.6719 126.613 93.6719ZM139.562 94.1602C145.266 94.6159 148.553 95.1693 149.426 95.8203L149.504 97.1094C149.751 101.081 149.367 109.199 148.352 121.465C148.156 122.428 148.007 122.91 147.902 122.91H144.406C142.388 122.91 140.78 122.708 139.582 122.305L139.484 119.355L138.293 101.699C138.397 96.9727 138.651 94.6094 139.055 94.6094C139.211 94.3099 139.38 94.1602 139.562 94.1602ZM139.699 124.258C144.296 124.466 146.945 124.622 147.648 124.727C147.466 127.995 147.323 129.629 147.219 129.629L144.289 130L139.66 129.473L139.523 124.336L139.602 124.258H139.699Z" fill="black"/>
</svg>
