<svg width="68" height="33" viewBox="0 0 68 33" fill="none" xmlns="http://www.w3.org/2000/svg">
<path d="M11.0352 15.6875C11.6341 16 12.2331 16.3385 12.832 16.7031C13.457 17.0677 14.0299 17.4193 14.5508 17.7578C15.0716 18.0703 15.5013 18.3698 15.8398 18.6562C16.2044 18.9167 16.4388 19.125 16.543 19.2812C16.6732 19.4896 16.7383 19.8151 16.7383 20.2578C16.7383 20.6745 16.6992 21.1432 16.6211 21.6641C16.569 22.1589 16.4779 22.6536 16.3477 23.1484C16.2174 23.6172 16.0742 23.9948 15.918 24.2812C15.7357 24.6458 15.319 25.1146 14.668 25.6875C14.043 26.2604 13.3398 26.8333 12.5586 27.4062C11.7773 27.9792 11.0091 28.487 10.2539 28.9297C9.52474 29.3724 8.96484 29.6458 8.57422 29.75C8.28776 29.8281 7.85807 29.9062 7.28516 29.9844C6.73828 30.0625 6.16536 30.1276 5.56641 30.1797C4.96745 30.2318 4.42057 30.2708 3.92578 30.2969C3.45703 30.2969 3.17057 30.2708 3.06641 30.2188C2.85807 30.0885 2.67578 29.8932 2.51953 29.6328C2.38932 29.3724 2.32422 29.0339 2.32422 28.6172C2.3763 27.7057 2.48047 27.0807 2.63672 26.7422C2.6888 26.6641 2.75391 26.625 2.83203 26.625C2.91016 26.599 3.04036 26.5859 3.22266 26.5859C3.40495 26.5859 3.63932 26.5859 3.92578 26.5859C4.21224 26.5859 4.58984 26.5729 5.05859 26.5469C4.92839 25.2188 4.8112 23.9557 4.70703 22.7578C4.60286 21.5599 4.51172 20.5052 4.43359 19.5938C4.32943 18.526 4.2513 17.5234 4.19922 16.5859C4.14714 15.6745 4.06901 14.6589 3.96484 13.5391C3.88672 12.5755 3.79557 11.4557 3.69141 10.1797C3.58724 8.90365 3.47005 7.52344 3.33984 6.03906C3.10547 6.03906 2.83203 6.03906 2.51953 6.03906C2.20703 6.03906 1.89453 6.03906 1.58203 6.03906C1.29557 6.01302 1.04818 5.98698 0.839844 5.96094C0.605469 5.90885 0.46224 5.84375 0.410156 5.76562C0.30599 5.60938 0.227865 5.32292 0.175781 4.90625C0.123698 4.46354 0.0976562 4.03385 0.0976562 3.61719C0.0976562 3.17448 0.175781 2.74479 0.332031 2.32812C0.488281 1.88542 0.670573 1.59896 0.878906 1.46875C0.93099 1.44271 1.13932 1.44271 1.50391 1.46875C1.86849 1.46875 2.3112 1.50781 2.83203 1.58594C3.35286 1.63802 3.91276 1.71615 4.51172 1.82031C5.13672 1.89844 5.72266 1.98958 6.26953 2.09375C6.81641 2.17188 7.29818 2.25 7.71484 2.32812C8.13151 2.40625 8.41797 2.45833 8.57422 2.48438C8.83464 2.53646 9.32943 2.67969 10.0586 2.91406C10.8138 3.1224 11.6211 3.36979 12.4805 3.65625C13.3398 3.94271 14.1602 4.26823 14.9414 4.63281C15.7227 4.97135 16.2695 5.3099 16.582 5.64844C16.7122 5.77865 16.8294 6.14323 16.9336 6.74219C17.0638 7.34115 17.1549 8.00521 17.207 8.73438C17.2852 9.46354 17.3112 10.1536 17.2852 10.8047C17.2852 11.4297 17.2201 11.8464 17.0898 12.0547C16.9857 12.2109 16.6211 12.4844 15.9961 12.875C15.3711 13.2656 14.681 13.6693 13.9258 14.0859C13.0664 14.5547 12.1029 15.0885 11.0352 15.6875ZM8.06641 14.9062C8.40495 14.75 8.86068 14.4375 9.43359 13.9688C10.0326 13.5 10.6185 12.9792 11.1914 12.4062C11.7904 11.8073 12.2982 11.2083 12.7148 10.6094C13.1576 9.98438 13.3789 9.45052 13.3789 9.00781C13.3789 8.8776 13.2357 8.70833 12.9492 8.5C12.6888 8.29167 12.3242 8.08333 11.8555 7.875C11.3867 7.66667 10.8268 7.45833 10.1758 7.25C9.55078 7.01562 8.8737 6.80729 8.14453 6.625L8.06641 14.9062ZM8.02734 26.1172C8.75651 25.9609 9.44661 25.7135 10.0977 25.375C10.7487 25.0365 11.3216 24.6719 11.8164 24.2812C12.3112 23.8646 12.7018 23.4479 12.9883 23.0312C13.2747 22.6146 13.418 22.237 13.418 21.8984C13.418 21.5599 13.1966 21.1823 12.7539 20.7656C12.3372 20.349 11.8294 19.9323 11.2305 19.5156C10.6576 19.099 10.0716 18.7214 9.47266 18.3828C8.8737 18.0443 8.40495 17.7969 8.06641 17.6406L8.02734 26.1172ZM33.1055 6.19531C33.2357 6.35156 33.3659 6.79427 33.4961 7.52344C33.6263 8.2526 33.7174 9.04688 33.7695 9.90625C33.8477 10.7656 33.8737 11.5729 33.8477 12.3281C33.8477 13.0833 33.7826 13.5781 33.6523 13.8125C33.5482 13.9688 33.2878 14.2552 32.8711 14.6719C32.4544 15.0625 31.9727 15.5052 31.4258 16C30.8789 16.4948 30.306 16.9896 29.707 17.4844C29.1341 17.9531 28.6263 18.3568 28.1836 18.6953C28.3919 19.112 28.6523 19.6589 28.9648 20.3359C29.2773 20.987 29.6159 21.6901 29.9805 22.4453C30.3451 23.1745 30.6966 23.9297 31.0352 24.7109C31.3997 25.4922 31.7253 26.2083 32.0117 26.8594C32.2982 27.4844 32.5326 28.0182 32.7148 28.4609C32.8971 28.8776 32.9883 29.125 32.9883 29.2031C32.9883 29.3333 32.9232 29.5156 32.793 29.75C32.6888 29.9844 32.5456 30.2057 32.3633 30.4141C32.181 30.5964 31.9857 30.7526 31.7773 30.8828C31.569 31.013 31.3737 31.0391 31.1914 30.9609C31.0872 30.9349 30.8919 30.7266 30.6055 30.3359C30.319 29.9193 29.9674 29.4115 29.5508 28.8125C29.1602 28.1875 28.7174 27.4844 28.2227 26.7031C27.7539 25.9219 27.2721 25.1406 26.7773 24.3594C26.2826 23.5521 25.8138 22.7839 25.3711 22.0547C24.9284 21.2995 24.5378 20.6354 24.1992 20.0625C24.1471 22.7708 24.082 24.8542 24.0039 26.3125C23.9518 27.7708 23.9128 28.8385 23.8867 29.5156C23.8346 30.3229 23.7826 30.7786 23.7305 30.8828C23.6523 30.8828 23.4831 30.7786 23.2227 30.5703C22.9622 30.3359 22.6888 30.0625 22.4023 29.75C22.1159 29.4375 21.8424 29.125 21.582 28.8125C21.3477 28.5 21.2044 28.2656 21.1523 28.1094C21.1003 27.7708 21.0221 26.7943 20.918 25.1797C20.8659 24.4766 20.8138 23.6042 20.7617 22.5625C20.7096 21.5208 20.6445 20.2578 20.5664 18.7734C20.5143 17.2891 20.4362 15.5443 20.332 13.5391C20.2279 11.5339 20.1237 9.22917 20.0195 6.625C19.5508 6.59896 19.1732 6.59896 18.8867 6.625C18.6003 6.625 18.3789 6.63802 18.2227 6.66406C18.0664 6.6901 17.9492 6.70312 17.8711 6.70312C17.793 6.67708 17.7279 6.61198 17.6758 6.50781C17.5716 6.29948 17.4935 5.94792 17.4414 5.45312C17.3893 4.93229 17.3633 4.4375 17.3633 3.96875C17.3633 3.44792 17.4414 2.92708 17.5977 2.40625C17.7279 1.88542 17.8971 1.5599 18.1055 1.42969C18.2096 1.35156 18.5742 1.36458 19.1992 1.46875C19.8242 1.54688 20.5143 1.65104 21.2695 1.78125C22.0247 1.91146 22.7409 2.05469 23.418 2.21094C24.1211 2.36719 24.5768 2.47135 24.7852 2.52344C24.9674 2.57552 25.2669 2.66667 25.6836 2.79688C26.1003 2.90104 26.582 3.05729 27.1289 3.26562C27.6758 3.44792 28.2487 3.65625 28.8477 3.89062C29.4727 4.125 30.0586 4.3724 30.6055 4.63281C31.1523 4.89323 31.6471 5.15365 32.0898 5.41406C32.5326 5.67448 32.8711 5.9349 33.1055 6.19531ZM24.3164 17.2109C24.5508 17.0807 24.8633 16.8333 25.2539 16.4688C25.6445 16.0781 26.0612 15.6484 26.5039 15.1797C26.9727 14.6849 27.4414 14.1771 27.9102 13.6562C28.3789 13.1094 28.7956 12.6016 29.1602 12.1328C29.5508 11.6641 29.8633 11.2604 30.0977 10.9219C30.332 10.5833 30.4492 10.362 30.4492 10.2578C30.4492 10.0755 30.2799 9.86719 29.9414 9.63281C29.6289 9.3724 29.2122 9.11198 28.6914 8.85156C28.1706 8.59115 27.5586 8.34375 26.8555 8.10938C26.1523 7.84896 25.4362 7.6276 24.707 7.44531L24.3164 17.2109ZM47.0898 0.921875C47.168 1.02604 47.2591 1.5599 47.3633 2.52344C47.4935 3.46094 47.6237 4.63281 47.7539 6.03906C47.9102 7.44531 48.0664 8.98177 48.2227 10.6484C48.3789 12.2891 48.5221 13.8776 48.6523 15.4141C48.7826 16.9245 48.8997 18.2786 49.0039 19.4766C49.1081 20.6484 49.1862 21.4688 49.2383 21.9375C49.3164 22.6406 49.4336 23.5 49.5898 24.5156C49.7721 25.5312 49.9414 26.5339 50.0977 27.5234C50.2799 28.487 50.4232 29.3333 50.5273 30.0625C50.6315 30.7917 50.6445 31.2214 50.5664 31.3516C50.4883 31.4818 50.2279 31.4688 49.7852 31.3125C49.3424 31.1562 48.8607 30.9349 48.3398 30.6484C47.819 30.362 47.3242 30.0495 46.8555 29.7109C46.4128 29.3724 46.1263 29.0859 45.9961 28.8516C45.8659 28.5911 45.7227 28.1615 45.5664 27.5625C45.4102 26.9375 45.2409 26.1172 45.0586 25.1016C44.7201 25.7266 44.3424 26.3646 43.9258 27.0156C43.5091 27.6667 43.1055 28.2656 42.7148 28.8125C42.3242 29.3594 41.9596 29.8151 41.6211 30.1797C41.3086 30.5182 41.0742 30.6745 40.918 30.6484C40.6576 30.6224 40.2539 30.2839 39.707 29.6328C39.1862 28.9557 38.6523 28.2005 38.1055 27.3672C37.5586 26.5078 37.0638 25.7005 36.6211 24.9453C36.2044 24.1641 35.9701 23.6432 35.918 23.3828C35.8919 23.2266 35.8789 22.875 35.8789 22.3281C35.8789 21.7552 35.8789 21.0781 35.8789 20.2969C35.9049 19.5156 35.931 18.6693 35.957 17.7578C36.0091 16.8203 36.0482 15.9089 36.0742 15.0234C36.1263 14.112 36.1654 13.2526 36.1914 12.4453C36.2435 11.638 36.2956 10.974 36.3477 10.4531C36.3997 9.64583 36.4648 8.8125 36.543 7.95312C36.6471 7.06771 36.7383 6.2474 36.8164 5.49219C36.9206 4.73698 37.0117 4.09896 37.0898 3.57812C37.194 3.03125 37.2852 2.69271 37.3633 2.5625C37.4154 2.45833 37.5716 2.39323 37.832 2.36719C38.1185 2.34115 38.431 2.36719 38.7695 2.44531C39.1081 2.4974 39.4206 2.60156 39.707 2.75781C39.9935 2.88802 40.1888 3.05729 40.293 3.26562C40.3451 3.39583 40.3711 3.91667 40.3711 4.82812C40.3971 5.71354 40.4102 6.78125 40.4102 8.03125C40.4102 9.28125 40.3971 10.6354 40.3711 12.0938C40.3711 13.526 40.3581 14.8802 40.332 16.1562C40.306 17.4323 40.2799 18.526 40.2539 19.4375C40.2539 20.3229 40.2539 20.8438 40.2539 21C40.2539 21.2865 40.4492 21.7422 40.8398 22.3672C41.2565 22.9661 41.6341 23.6953 41.9727 24.5547L44.4336 21.7812C44.4076 21.0521 44.3815 20.1146 44.3555 18.9688C44.3555 17.8229 44.3424 16.612 44.3164 15.3359C44.2904 14.0339 44.2643 12.7318 44.2383 11.4297C44.2383 10.1016 44.2383 8.89062 44.2383 7.79688C44.2383 6.70312 44.2383 5.80469 44.2383 5.10156C44.2643 4.3724 44.2904 3.95573 44.3164 3.85156C44.3945 3.64323 44.5508 3.34375 44.7852 2.95312C45.0456 2.53646 45.319 2.15885 45.6055 1.82031C45.8919 1.45573 46.1784 1.16927 46.4648 0.960938C46.7513 0.752604 46.9596 0.739583 47.0898 0.921875ZM67.6367 20.1016C67.6888 20.2057 67.6888 20.4922 67.6367 20.9609C67.5846 21.4036 67.4935 21.8854 67.3633 22.4062C67.2591 22.9271 67.1419 23.4219 67.0117 23.8906C66.9076 24.3333 66.8294 24.5938 66.7773 24.6719C66.6471 24.6719 66.5039 24.6719 66.3477 24.6719C66.2174 24.6458 66.0872 24.6328 65.957 24.6328C65.8268 24.6328 65.6836 24.6198 65.5273 24.5938C65.4492 25.6875 65.3581 26.7161 65.2539 27.6797C65.1497 28.6172 65.0456 29.4245 64.9414 30.1016C64.8372 30.7786 64.7461 31.3125 64.668 31.7031C64.5898 32.1198 64.5117 32.3281 64.4336 32.3281C64.2253 32.3802 63.9909 32.2891 63.7305 32.0547C63.4961 31.8464 63.2617 31.5859 63.0273 31.2734C62.793 30.9609 62.5846 30.6354 62.4023 30.2969C62.2201 29.9323 62.1159 29.6198 62.0898 29.3594C62.0638 28.8385 62.0378 28.2917 62.0117 27.7188C62.0117 27.1198 61.9987 26.5729 61.9727 26.0781C61.9466 25.5052 61.9336 24.9323 61.9336 24.3594C61.4388 24.3073 60.957 24.2682 60.4883 24.2422C60.0195 24.1901 59.5508 24.138 59.082 24.0859C58.8477 24.0339 58.6133 24.0078 58.3789 24.0078C58.1445 23.9818 57.9232 23.9427 57.7148 23.8906C57.6628 25.0885 57.6107 26.1953 57.5586 27.2109C57.5065 28.2266 57.4414 29.112 57.3633 29.8672C57.3112 30.6224 57.2461 31.2083 57.168 31.625C57.1159 32.0677 57.0508 32.3021 56.9727 32.3281C56.7643 32.3542 56.5169 32.263 56.2305 32.0547C55.944 31.8464 55.6706 31.5859 55.4102 31.2734C55.1758 30.9609 54.9544 30.6354 54.7461 30.2969C54.5638 29.9583 54.4596 29.6589 54.4336 29.3984C54.3815 28.7214 54.3294 28.0312 54.2773 27.3281C54.2253 26.599 54.1732 25.9349 54.1211 25.3359C54.069 24.6328 54.0169 23.9427 53.9648 23.2656C53.7565 23.2396 53.5482 23.2005 53.3398 23.1484C53.1576 23.0964 52.9622 23.0573 52.7539 23.0312C52.5716 23.0052 52.4023 22.9661 52.2461 22.9141C52.1419 22.862 51.9987 22.7578 51.8164 22.6016C51.6341 22.4193 51.4518 22.224 51.2695 22.0156C51.0872 21.8073 50.931 21.612 50.8008 21.4297C50.6706 21.2214 50.6055 21.0651 50.6055 20.9609C50.6055 20.9089 50.8919 20.8438 51.4648 20.7656C52.0638 20.6875 52.8451 20.6224 53.8086 20.5703C53.7044 19.0599 53.6003 17.5234 53.4961 15.9609C53.418 14.3724 53.3529 12.901 53.3008 11.5469C53.2487 10.1667 53.2227 8.96875 53.2227 7.95312C53.2227 6.91146 53.2617 6.19531 53.3398 5.80469C53.444 5.25781 53.6914 4.73698 54.082 4.24219C54.4987 3.72135 54.9414 3.26562 55.4102 2.875C55.8789 2.48438 56.3216 2.1849 56.7383 1.97656C57.1549 1.76823 57.4284 1.70312 57.5586 1.78125C57.6367 1.85938 57.7018 2.17188 57.7539 2.71875C57.832 3.26562 57.8841 3.99479 57.9102 4.90625C57.9622 5.81771 57.9883 6.8724 57.9883 8.07031C57.9883 9.26823 57.9883 10.5443 57.9883 11.8984C57.9883 13.2266 57.9622 14.6198 57.9102 16.0781C57.8841 17.5104 57.8581 18.9297 57.832 20.3359C58.5091 20.2839 59.1732 20.2448 59.8242 20.2188C60.5013 20.1927 61.1654 20.1536 61.8164 20.1016C61.7904 18.6172 61.7643 17.1068 61.7383 15.5703C61.7383 14.0339 61.7383 12.6016 61.7383 11.2734C61.7383 9.94531 61.7643 8.78646 61.8164 7.79688C61.8685 6.80729 61.9336 6.11719 62.0117 5.72656C62.1419 5.17969 62.4154 4.65885 62.832 4.16406C63.2747 3.66927 63.7305 3.23958 64.1992 2.875C64.694 2.48438 65.1497 2.19792 65.5664 2.01562C66.0091 1.83333 66.2956 1.79427 66.4258 1.89844C66.556 1.97656 66.6341 2.58854 66.6602 3.73438C66.6862 4.85417 66.6602 6.27344 66.582 7.99219C66.5299 9.71094 66.4388 11.638 66.3086 13.7734C66.2044 15.8828 66.0742 17.9661 65.918 20.0234C66.9596 20.0234 67.5326 20.0495 67.6367 20.1016Z" fill="black"/>
</svg>
