<svg width="86" height="54" viewBox="0 0 86 54" fill="none" xmlns="http://www.w3.org/2000/svg">
<path d="M23.351 45C35.779 45 45.851 34.927 45.851 22.5C45.851 10.073 35.779 0 23.351 0C10.925 0 0.851013 10.073 0.851013 22.5C0.851013 34.927 10.926 45 23.351 45ZM29.185 25.605C31.762 25.605 33.852 28.963 33.852 33.105C33.852 37.247 31.763 40.605 29.185 40.605C26.608 40.605 24.518 37.247 24.518 33.105C24.518 28.963 26.607 25.605 29.185 25.605Z" fill="black"/>
<path d="M77.835 29.531C76.201 24.966 71.45 22.143 66.541 23.091C61.965 23.976 58.738 27.852 58.469 32.299L45.535 32.555L45.487 34.053L56.35 34.397L65.221 34.678L65.184 32.167L60.728 32.255C61.5 29.237 63.935 26.777 67.196 26.147C70.389 25.531 73.501 26.836 75.358 29.249C74.745 29.255 74.126 29.308 73.502 29.428C71.398 29.834 69.571 30.859 68.17 32.275C69.048 31.719 70.038 31.308 71.12 31.099C75.762 30.201 80.252 33.237 81.149 37.879C82.045 42.521 79.009 47.011 74.368 47.908C72.166 48.333 70.003 47.865 68.237 46.769C69.168 47.69 70.268 48.426 71.476 48.934C70.591 49.518 69.581 49.944 68.475 50.158C63.97 51.029 59.61 48.082 58.74 43.576C58.599 42.848 58.568 42.125 58.617 41.419L63.671 42.97L64.304 40.871C64.285 40.757 64.27 40.643 64.256 40.529L56.039 38.462L45.249 35.748L44.884 37.204L55.965 40.605C55.692 41.924 55.667 43.316 55.938 44.721C57.038 50.412 62.543 54.136 68.236 53.036C70.617 52.576 72.645 51.339 74.128 49.646C75.187 49.783 76.284 49.763 77.39 49.55C82.947 48.476 86.581 43.103 85.508 37.547C84.719 33.472 81.62 30.442 77.835 29.531Z" fill="black"/>
<path d="M57.893 21.313C60.1021 21.313 61.893 19.5221 61.893 17.313C61.893 15.1038 60.1021 13.313 57.893 13.313C55.6839 13.313 53.893 15.1038 53.893 17.313C53.893 19.5221 55.6839 21.313 57.893 21.313Z" fill="black"/>
<path d="M61.476 9.813C63.0406 9.813 64.309 8.54463 64.309 6.98C64.309 5.41538 63.0406 4.147 61.476 4.147C59.9114 4.147 58.643 5.41538 58.643 6.98C58.643 8.54463 59.9114 9.813 61.476 9.813Z" fill="black"/>
<path d="M67.018 16.771C68.5826 16.771 69.851 15.5026 69.851 13.938C69.851 12.3734 68.5826 11.105 67.018 11.105C65.4534 11.105 64.185 12.3734 64.185 13.938C64.185 15.5026 65.4534 16.771 67.018 16.771Z" fill="black"/>
</svg>
