<?xml version="1.0" encoding="utf-8"?><!-- Uploaded to: SVG Repo, www.svgrepo.com, Generator: SVG Repo Mixer Tools -->
<svg version="1.1" id="designs" xmlns="http://www.w3.org/2000/svg" xmlns:xlink="http://www.w3.org/1999/xlink" 
	 width="800px" height="800px" viewBox="0 0 32 32" xml:space="preserve">
<style type="text/css">
	.sketchy_een{fill:#111918;}
</style>
<path class="sketchy_een" d="M21.904,19.189c0.031-0.024,0.062-0.049,0.093-0.073c0.018-0.014,0.038-0.026,0.056-0.04
	C22.004,19.114,21.953,19.152,21.904,19.189z M24.859,14.191c0.002,0.333-0.013,0.684-0.138,0.996
	c-0.134,0.336-0.287,0.65-0.467,0.962c-0.155,0.268-0.295,0.542-0.455,0.807c-0.242,0.399-0.486,0.792-0.771,1.164
	c-0.166,0.217-0.334,0.427-0.54,0.608c-0.157,0.137-0.325,0.261-0.491,0.388c-0.24,0.185-0.476,0.36-0.788,0.402
	c-0.149,0.021-0.301,0.031-0.452,0.033c-0.098,0.377-0.211,0.749-0.312,1.127c-0.036,0.132-0.057,0.268-0.091,0.403
	c-0.04,0.157-0.094,0.31-0.151,0.461c-0.112,0.31-0.2,0.627-0.31,0.937c-0.041,0.116-0.087,0.231-0.131,0.345
	c0.014,0,0.028,0,0.042,0c0.196-0.006,0.39-0.027,0.584-0.045c0.122-0.074,0.254-0.128,0.391-0.128c0.202,0,0.397,0.081,0.54,0.225
	c0.151,0.151,0.208,0.333,0.225,0.54c0.07,0.973,0.134,1.946,0.198,2.922c0.047,0.72,0.079,1.444,0.11,2.167
	c0.007,0.195-0.077,0.374-0.208,0.508c0.001,0.018,0.011,0.034,0.011,0.052c0,0.402-0.34,0.752-0.746,0.746
	c-0.385-0.006-0.773-0.015-1.158-0.023c-0.471-0.008-0.934,0.025-1.404,0.055c-0.427,0.03-0.856,0.015-1.287,0.028
	c-0.403,0.011-0.803,0.023-1.206,0.047c-1.14,0.066-2.283,0.06-3.424,0.079c-0.469,0.008-0.932-0.043-1.398-0.062
	c-0.406-0.015-0.811-0.008-1.217,0c-0.274,0.006-0.548,0.011-0.82,0.008c-0.427-0.002-0.782-0.353-0.782-0.782
	c0-0.16,0.064-0.306,0.152-0.434c-0.006-0.037-0.012-0.074-0.016-0.113c-0.001-0.014-0.002-0.027-0.004-0.04
	c0.007,0.05,0.014,0.101,0.02,0.152c0-0.001,0.001-0.001,0.001-0.002c-0.028-0.22-0.038-0.416-0.035-0.638
	c0.004-0.178,0.021-0.355,0.028-0.533c0.011-0.374,0.023-0.748,0.053-1.121c0.025-0.316,0.026-0.635,0.025-0.952
	c-0.003-0.438-0.006-0.876-0.006-1.313c-0.099-0.128-0.168-0.28-0.168-0.445c0-0.408,0.335-0.729,0.737-0.739
	c0.032-0.001,0.064,0.001,0.096,0.001c-0.11-0.213-0.222-0.423-0.327-0.64c-0.096-0.198-0.197-0.397-0.287-0.597
	c-0.094-0.204-0.178-0.412-0.264-0.619c-0.068-0.152-0.149-0.299-0.22-0.45c-0.089-0.185-0.166-0.378-0.236-0.573
	c-0.1-0.28-0.185-0.569-0.27-0.854c-0.108-0.357-0.219-0.703-0.282-1.071c-0.091-0.537-0.111-1.083,0.066-1.606
	c0.195-0.58,0.452-1.147,0.767-1.672c0.215-0.357,0.457-0.705,0.762-0.992c0.272-0.255,0.607-0.454,0.96-0.599
	c-0.116-0.725-0.213-1.454-0.31-2.182C9.348,10.39,9.225,9.655,9.106,8.917c-0.06-0.372-0.125-0.748-0.153-1.126
	C8.934,7.522,8.909,7.256,8.876,6.988C8.825,6.654,8.768,6.323,8.76,5.984C8.75,5.658,8.752,5.331,8.745,5.006
	C8.733,4.382,8.729,3.713,9.068,3.161c0.278-0.453,0.748-0.83,1.27-0.96c0.338-0.085,0.703-0.083,1.041,0
	c0.221,0.055,0.455,0.134,0.644,0.261c0.204,0.136,0.387,0.297,0.544,0.488c0.227,0.28,0.376,0.567,0.501,0.905
	c0.072,0.193,0.162,0.38,0.215,0.576c0.064,0.236,0.129,0.472,0.187,0.711c0.108,0.435,0.231,0.873,0.304,1.315
	c0.046,0.272,0.104,0.541,0.156,0.812c0.004-0.013,0.007-0.026,0.011-0.039c0.111-0.416,0.223-0.83,0.329-1.247
	c0.087-0.352,0.215-0.686,0.344-1.026c0.085-0.229,0.149-0.465,0.242-0.69c0.111-0.274,0.244-0.533,0.38-0.794
	c0.089-0.172,0.189-0.336,0.304-0.491c0.132-0.178,0.278-0.372,0.454-0.514c0.232-0.187,0.474-0.331,0.767-0.406
	C16.919,2.02,17.076,2,17.234,2c0.135,0,0.271,0.015,0.409,0.043c0.208,0.042,0.419,0.112,0.607,0.212
	c0.193,0.104,0.35,0.259,0.491,0.421c0.159,0.181,0.304,0.372,0.431,0.576c0.128,0.212,0.212,0.444,0.28,0.68
	c0.125,0.446,0.146,0.915,0.151,1.376c0.004,0.227,0.004,0.455-0.025,0.68c-0.047,0.372-0.123,0.739-0.181,1.109
	c-0.083,0.522-0.155,1.045-0.263,1.563c-0.082,0.39-0.161,0.783-0.246,1.173c0.157-0.025,0.307-0.042,0.461-0.042
	c0.067,0,0.134,0.003,0.203,0.01c0.206,0.019,0.419,0.036,0.612,0.113c0.263,0.104,0.482,0.253,0.684,0.453
	c0.367,0.361,0.601,0.799,0.756,1.285c0.034,0.106,0.062,0.214,0.086,0.323c0.212-0.066,0.426-0.122,0.642-0.165
	c0.208-0.04,0.42-0.073,0.63-0.073c0.137,0,0.273,0.014,0.407,0.049c0.444,0.117,0.813,0.442,1.079,0.801
	c0.157,0.21,0.246,0.471,0.306,0.722C24.823,13.598,24.856,13.893,24.859,14.191z M19.157,11.32
	c-0.175,0.082-0.345,0.175-0.516,0.269c-0.041,0.023-0.087,0.027-0.13,0.043c-0.043,0.185-0.091,0.368-0.147,0.549
	c0.01,0.089,0.005,0.18-0.01,0.28c-0.042,0.292-0.107,0.579-0.156,0.87c-0.023,0.24-0.023,0.478-0.071,0.717
	c-0.039,0.191-0.087,0.38-0.117,0.575c-0.011,0.078-0.022,0.157-0.034,0.235c-0.018,0.199-0.016,0.398-0.011,0.599
	c0.006,0.223,0.013,0.445,0.035,0.668c0.016,0.093,0.038,0.184,0.067,0.273c0.023,0.045,0.048,0.088,0.076,0.13
	c0.032,0.036,0.066,0.07,0.101,0.102c0.038,0.026,0.078,0.051,0.118,0.073c0,0,0.001,0,0.001,0c0.024-0.005,0.048-0.012,0.071-0.019
	c0.032-0.017,0.063-0.036,0.094-0.055c0.113-0.099,0.215-0.212,0.311-0.329c0.163-0.223,0.303-0.46,0.444-0.696
	c0.184-0.307,0.355-0.624,0.5-0.95c0.123-0.305,0.233-0.614,0.324-0.932c0.086-0.301,0.182-0.603,0.239-0.911
	c0.005-0.082,0.004-0.162-0.002-0.243c-0.042-0.225-0.111-0.444-0.194-0.657c-0.055-0.116-0.122-0.222-0.197-0.324
	c-0.061-0.071-0.125-0.137-0.194-0.198c-0.03-0.02-0.06-0.038-0.091-0.055c-0.052-0.016-0.104-0.028-0.157-0.038
	c-0.084-0.007-0.166-0.008-0.249-0.004C19.226,11.299,19.191,11.309,19.157,11.32z M10.552,8.36c0.003,0.024,0.007,0.048,0.01,0.072
	c-0.004-0.026-0.007-0.053-0.011-0.079C10.552,8.355,10.552,8.357,10.552,8.36z M8.966,19.05c0.089,0.311,0.187,0.629,0.306,0.931
	c0.13,0.297,0.266,0.591,0.393,0.89c-0.025-0.059-0.049-0.115-0.074-0.174c0.155,0.359,0.319,0.712,0.497,1.06
	c0.191,0.374,0.408,0.731,0.603,1.104c0.021,0.04,0.025,0.083,0.039,0.124c0.188-0.006,0.376-0.01,0.566-0.022
	c0.478-0.026,0.96-0.025,1.442-0.021c0.329,0.002,0.658,0.002,0.984-0.006c0.703-0.015,1.406-0.043,2.109-0.051
	c0.639-0.006,1.277-0.019,1.916-0.045c0.176-0.007,0.353-0.003,0.53-0.005c0.083-0.252,0.179-0.503,0.258-0.757
	c0.096-0.306,0.195-0.61,0.299-0.913c0.098-0.291,0.17-0.586,0.24-0.884c0.102-0.429,0.198-0.86,0.297-1.289
	c0.008-0.034,0.028-0.06,0.041-0.091c-0.2-0.246-0.348-0.533-0.468-0.832c-0.284,0.129-0.596,0.187-0.942,0.114
	c-0.219-0.045-0.454-0.176-0.637-0.31c-0.231-0.17-0.421-0.344-0.571-0.595c-0.253-0.431-0.314-0.937-0.31-1.429
	c0.002-0.223,0.004-0.444,0.009-0.665c0.008-0.246,0.051-0.486,0.096-0.728c0.055-0.289,0.136-0.576,0.185-0.865
	c0.026-0.246,0.039-0.491,0.098-0.734c0.029-0.116,0.052-0.233,0.081-0.349c-0.073-0.152-0.118-0.354-0.053-0.509
	c0.051-0.125,0.083-0.259,0.119-0.389c0.104-0.382,0.197-0.765,0.266-1.155c0.079-0.444,0.195-0.879,0.274-1.321
	c0.087-0.478,0.206-0.951,0.282-1.432c0.092-0.575,0.178-1.153,0.26-1.729c0.028-0.238,0.04-0.472,0.033-0.71
	c-0.005-0.197-0.006-0.395-0.023-0.59c-0.029-0.164-0.068-0.326-0.123-0.483c-0.071-0.143-0.158-0.279-0.251-0.407
	c-0.063-0.077-0.129-0.153-0.2-0.222c-0.02-0.012-0.041-0.023-0.062-0.034c-0.064-0.022-0.129-0.041-0.196-0.056
	c-0.046-0.002-0.092-0.001-0.138,0.002c-0.057,0.013-0.113,0.031-0.168,0.051c-0.021,0.011-0.041,0.022-0.061,0.035
	c-0.055,0.049-0.108,0.1-0.157,0.155c-0.203,0.286-0.359,0.603-0.499,0.925c-0.1,0.261-0.174,0.529-0.267,0.793
	c-0.076,0.214-0.144,0.427-0.208,0.644c-0.178,0.586-0.312,1.183-0.489,1.769c-0.134,0.448-0.212,0.907-0.287,1.368
	c-0.068,0.418-0.132,0.835-0.196,1.255c-0.015,0.096-0.03,0.195-0.049,0.293c-0.04,0.196-0.115,0.357-0.248,0.514
	c-0.225,0.265-0.665,0.283-0.949,0.119c-0.13-0.077-0.253-0.21-0.323-0.344c-0.06-0.115-0.112-0.236-0.149-0.361
	c-0.108-0.346-0.164-0.703-0.259-1.053c-0.129-0.469-0.232-0.945-0.314-1.423c-0.085-0.503-0.18-1.002-0.265-1.502
	c-0.074-0.435-0.206-0.854-0.299-1.285c-0.051-0.236-0.102-0.471-0.191-0.697c-0.064-0.162-0.12-0.328-0.183-0.493
	C11.54,4.147,11.49,4.062,11.435,3.98c-0.052-0.059-0.106-0.116-0.163-0.17c-0.031-0.019-0.062-0.037-0.095-0.053
	c-0.076-0.026-0.153-0.048-0.232-0.064c-0.055-0.003-0.109-0.003-0.164,0c-0.03,0.007-0.06,0.014-0.089,0.023
	c-0.045,0.024-0.089,0.05-0.132,0.078c-0.033,0.032-0.064,0.064-0.094,0.099c-0.027,0.043-0.052,0.087-0.075,0.131
	c-0.04,0.116-0.067,0.235-0.087,0.356c-0.026,0.33,0.011,0.667,0.005,0.997c-0.008,0.387,0.002,0.777,0.051,1.16
	c-0.009-0.07-0.019-0.138-0.028-0.206c0.053,0.397,0.115,0.794,0.147,1.192c0.022,0.268,0.038,0.535,0.071,0.801
	c0.04,0.27,0.084,0.54,0.118,0.811c0.036,0.283,0.06,0.567,0.098,0.85c0.08,0.608,0.121,1.219,0.198,1.827
	c0.058,0.382,0.139,0.76,0.218,1.138c0.323-0.042,0.649-0.058,0.971-0.101c-0.064,0.009-0.128,0.017-0.193,0.026
	c0.376-0.052,0.759-0.093,1.141-0.093c0.19,0,0.379,0.01,0.568,0.034c0.178,0.023,0.355,0.043,0.529,0.091
	c0.172,0.045,0.329,0.11,0.491,0.18c0.285,0.125,0.523,0.378,0.671,0.65c0.108,0.196,0.212,0.412,0.251,0.635
	c0.043,0.246,0.078,0.505,0.072,0.756c-0.009,0.535-0.166,1.136-0.567,1.516c-0.206,0.195-0.457,0.34-0.699,0.484
	c-0.215,0.127-0.438,0.249-0.678,0.318c-0.219,0.06-0.452,0.087-0.678,0.104c-0.178,0.011-0.359,0.004-0.537,0.024
	c-0.112,0.015-0.224,0.03-0.337,0.045c-0.01,0.002-0.02,0.004-0.03,0.005c-0.1,0.136-0.203,0.27-0.317,0.392
	c-0.255,0.274-0.712,0.257-0.969,0c-0.268-0.268-0.259-0.699,0-0.968c0.051-0.054,0.101-0.112,0.149-0.17
	c0.131-0.18,0.248-0.364,0.46-0.468c0.215-0.103,0.443-0.12,0.675-0.145c0.193-0.031,0.386-0.069,0.583-0.074
	c0.135-0.002,0.269-0.005,0.403-0.018c0.094-0.016,0.186-0.037,0.276-0.068c0.21-0.101,0.409-0.227,0.598-0.365
	c0.039-0.033,0.076-0.067,0.111-0.104c0.019-0.03,0.036-0.061,0.052-0.092c0.021-0.06,0.038-0.122,0.05-0.185
	c0.015-0.19,0.012-0.38-0.006-0.57c-0.012-0.067-0.027-0.134-0.048-0.2c-0.031-0.06-0.065-0.119-0.102-0.175
	c-0.002-0.002-0.003-0.003-0.005-0.005c-0.01-0.005-0.019-0.011-0.029-0.016c-0.131-0.046-0.265-0.077-0.401-0.1
	c-0.23-0.025-0.461-0.032-0.692-0.032c-0.265,0-0.529,0.006-0.792,0.042c0.064-0.009,0.128-0.017,0.193-0.026
	c-0.316,0.043-0.633,0.075-0.949,0.111c-0.228,0.041-0.446,0.116-0.671,0.171c-0.152,0.037-0.298,0.083-0.442,0.138
	c-0.114,0.055-0.22,0.12-0.324,0.193c-0.11,0.096-0.208,0.206-0.3,0.32c-0.351,0.47-0.636,0.982-0.875,1.518
	c-0.072,0.186-0.133,0.375-0.172,0.571c-0.013,0.186,0.002,0.376,0.024,0.562C8.704,18.271,8.852,18.654,8.966,19.05z
	 M11.323,14.398c-0.001,0-0.002,0-0.002,0c-0.003,0-0.006,0.001-0.008,0.001C11.315,14.399,11.319,14.399,11.323,14.398z
	 M11.449,14.381L11.449,14.381c0.017-0.002,0.035-0.005,0.053-0.008c-0.057,0.008-0.114,0.016-0.171,0.024
	c0.005-0.001,0.009-0.001,0.014-0.002C11.38,14.391,11.415,14.386,11.449,14.381z M18.732,24.236
	c-0.582-0.006-1.162-0.011-1.744,0.008c-0.331,0.011-0.661,0.008-0.992,0.017c-0.368,0.009-0.737,0.023-1.105,0.032
	c-0.344,0.009-0.686,0.03-1.028,0.04c-0.359,0.011-0.718,0.009-1.079,0.009c-0.609,0.002-1.217,0.004-1.825,0.034
	c-0.322,0.015-0.644,0.027-0.966,0.042c-0.014,0.374-0.026,0.748-0.023,1.122c0.004,0.316,0.006,0.629-0.002,0.943
	c-0.011,0.374-0.032,0.746-0.042,1.121c-0.006,0.191-0.017,0.384-0.015,0.574c0,0.078,0.007,0.155,0.013,0.232
	c0.309,0.009,0.618,0.016,0.927,0.029c0.438,0.019,0.877,0.042,1.315,0.047c0.414,0.004,0.828-0.004,1.24-0.015
	c0.505-0.013,1.011-0.011,1.516-0.03c0.582-0.025,1.166-0.045,1.75-0.06c0.223-0.006,0.448-0.006,0.671-0.006
	c0.24,0,0.478,0.002,0.718-0.008c0.765-0.024,1.532-0.027,2.298-0.04c-0.003-0.287-0.025-0.574-0.025-0.861
	c-0.002-0.389-0.045-0.773-0.059-1.162c-0.025-0.702-0.104-1.401-0.179-2.099C19.641,24.221,19.187,24.242,18.732,24.236z
	 M23.377,14.531c0.015-0.221,0.001-0.446-0.021-0.666c-0.02-0.117-0.046-0.233-0.084-0.346c-0.02-0.039-0.042-0.078-0.065-0.115
	c-0.036-0.039-0.074-0.077-0.114-0.113c-0.043-0.028-0.087-0.054-0.132-0.079c-0.007-0.002-0.015-0.004-0.022-0.005
	c-0.107-0.003-0.215,0.005-0.322,0.016c-0.314,0.057-0.614,0.173-0.909,0.294c-0.032,0.018-0.07,0.014-0.104,0.028
	c-0.055,0.195-0.106,0.391-0.164,0.584c-0.094,0.314-0.195,0.625-0.321,0.926c-0.121,0.287-0.248,0.574-0.391,0.852
	c-0.136,0.263-0.289,0.518-0.438,0.773c-0.05,0.087-0.106,0.175-0.163,0.263c0.001,0.003,0.003,0.004,0.003,0.007
	c0.051,0.203,0.123,0.397,0.202,0.59c0.061,0.137,0.129,0.272,0.213,0.396c0.039,0.045,0.079,0.088,0.122,0.129
	c0.004,0.003,0.008,0.005,0.013,0.007c0.012,0.003,0.025,0.007,0.038,0.01c0.064,0.003,0.128,0.002,0.191-0.002
	c0.016-0.004,0.033-0.008,0.049-0.012c0.036-0.02,0.07-0.042,0.103-0.066c0.1-0.078,0.201-0.156,0.302-0.234
	c-0.034,0.026-0.068,0.052-0.103,0.078c0.25-0.194,0.462-0.428,0.656-0.676c0.214-0.289,0.409-0.587,0.591-0.896
	c0.132-0.223,0.255-0.45,0.384-0.675c0.12-0.212,0.249-0.418,0.352-0.638C23.297,14.82,23.344,14.679,23.377,14.531z"/>
</svg>