<?xml version="1.0" encoding="iso-8859-1"?>
<!-- Uploaded to: SVG Repo, www.svgrepo.com, Generator: SVG Repo Mixer Tools -->
<svg height="800px" width="800px" version="1.1" id="Capa_1" xmlns="http://www.w3.org/2000/svg" xmlns:xlink="http://www.w3.org/1999/xlink" 
	 viewBox="0 0 63 63" xml:space="preserve">
<g>
	<path style="fill:#010002;" d="M61,29.5h-5.051C55.211,17.352,45.582,7.57,33.5,6.588V2c0-1.104-0.896-2-2-2c-1.105,0-2,0.896-2,2
		v4.588C17.416,7.57,7.787,17.351,7.049,29.5H2c-1.105,0-2,0.896-2,2c0,1.105,0.895,2,2,2h5.125
		C8.314,45.184,17.75,54.457,29.5,55.412V61c0,1.105,0.895,2,2,2c1.104,0,2-0.895,2-2v-5.588
		C45.248,54.457,54.684,45.183,55.873,33.5H61c1.104,0,2-0.895,2-2C63,30.396,62.104,29.5,61,29.5z M51.924,29.5h-4.758v-2.4
		c0-1.104-0.896-2-2-2c-1.105,0-2,0.896-2,2v2.4h-2v-2.4c0-1.104-0.896-2-2-2c-1.105,0-2,0.896-2,2v2.4H33.5v-4h2.066
		c1.104,0,2-0.895,2-2c0-1.104-0.896-2-2-2H33.5v-2h2.066c1.104,0,2-0.895,2-2c0-1.104-0.896-2-2-2H33.5v-4.898
		C43.373,11.562,51.199,19.56,51.924,29.5z M29.5,10.601v4.898h-2.066c-1.105,0-2,0.896-2,2c0,1.105,0.895,2,2,2H29.5v2h-2.066
		c-1.105,0-2,0.896-2,2c0,1.105,0.895,2,2,2H29.5v4h-3.668v-2.4c0-1.104-0.895-2-2-2c-1.104,0-2,0.896-2,2v2.4h-2v-2.4
		c0-1.104-0.895-2-2-2c-1.104,0-2,0.896-2,2v2.4h-4.756C11.801,19.56,19.625,11.562,29.5,10.601z M11.168,33.5h4.664v1.732
		c0,1.105,0.896,2,2,2c1.105,0,2-0.895,2-2V33.5h2v1.732c0,1.105,0.896,2,2,2c1.105,0,2-0.895,2-2V33.5H29.5v3.334h-2.066
		c-1.105,0-2,0.895-2,2c0,1.104,0.895,2,2,2H29.5v2h-2.066c-1.105,0-2,0.895-2,2c0,1.104,0.895,2,2,2H29.5v4.564
		C19.959,50.47,12.326,42.972,11.168,33.5z M33.5,51.398v-4.564h2.066c1.104,0,2-0.896,2-2c0-1.105-0.896-2-2-2H33.5v-2h2.066
		c1.104,0,2-0.896,2-2c0-1.105-0.896-2-2-2H33.5V33.5h3.666v1.732c0,1.105,0.895,2,2,2c1.104,0,2-0.895,2-2V33.5h2v1.732
		c0,1.105,0.895,2,2,2c1.104,0,2-0.895,2-2V33.5h4.664C50.672,42.972,43.041,50.47,33.5,51.398z"/>
</g>
</svg>