<svg id="Layer_1" data-name="Layer 1" xmlns="http://www.w3.org/2000/svg" viewBox="0 0 453.76 325.19"><path d="M0,330.47c-.18-3.24,1.84-4.11,4.57-4.76,3.38-.8,6.62-2.16,9.94-3.18,4.53-1.39,9.08-2.72,13.63-4,5.44-1.57,10.79-3.41,16.16-5.17,7.16-2.35,14.33-4.67,21.6-6.67a102.12,102.12,0,0,0,9.6-3.63c6.45-2.49,13.06-4.58,19.33-7.52,3.21-1.5,6.31-3.25,9.59-4.56,5.36-2.13,10.48-4.83,15.93-6.73a4.11,4.11,0,0,0,1.07-.53c4-2.8,8.29-5.17,12.16-8.22a124.16,124.16,0,0,0,11.61-10.83,50.94,50.94,0,0,0,6.64-8.4,56.39,56.39,0,0,1,8-10.16,45.06,45.06,0,0,0,7.19-8.73c1.38-2.27,1.5-4.87,1.36-7.46a1,1,0,0,0-.9-1.09c-5-1-8.11-4.5-10-8.85a100.53,100.53,0,0,1-5.13-13.44,62,62,0,0,1-2-15.39A54.52,54.52,0,0,0,147.76,176a57.17,57.17,0,0,1-1.87-11.84,58.83,58.83,0,0,0-1.27-8.12,34.07,34.07,0,0,1-.41-15.11,49.56,49.56,0,0,0,.43-14.7,117.38,117.38,0,0,1-.19-15.58c.26-6,.09-12,1-18a22.4,22.4,0,0,1,4.45-10.8,46.3,46.3,0,0,0,4.6-7.43c3.89-7.61,9.54-13.84,15.7-19.64,4.42-4.15,8.93-8.22,13.15-12.59a54.48,54.48,0,0,1,18.91-12.48c3.41-1.4,7.19-1.35,10.76-2.17,5.86-1.35,11.61-3.14,17.57-4.05,10.1-1.53,20.28-2,30.46-2.69,10-.64,20-.3,30.06,0a137.1,137.1,0,0,1,40.51,7.81c4.27,1.48,8.83,2.4,12.63,4.89,7.41,4.85,13.25,10.92,13.94,20.45.16,2.23.56,4.43.88,6.64A37.19,37.19,0,0,1,359,72.2c-1.2,6.82.2,13.4,2.32,19.89,1.8,5.54,3.36,11.11,3.51,17.06.26,9.9.42,19.8,0,29.71a8.42,8.42,0,0,0,.7,3.85c.58,1.3.87,2.74,1.5,4,1.72,3.5,1.7,6.78-.63,10.07-2,2.86-3.07,6.27-4.67,9.37a6.72,6.72,0,0,0-.56,3.87c.84,7.63.12,15.2-.95,22.76-.7,4.93-1.22,9.88-1.77,14.83a106.72,106.72,0,0,1-2.63,12.94c-.94,3.94-1.76,7.91-2.69,11.86a57.84,57.84,0,0,1-9.25,20.72c-5.19,7.2-8.64,15.35-13,23-2.57,4.5-4.23,9.38-6.49,14-1.41,2.87-1.28,3,1.59,4.18q19.66,8.18,39.36,16.29c6.42,2.64,13.24,4.08,19.69,6.64,1.72.68,3.21,1.73,4.87,2.5,5.23,2.45,11,3.18,16.28,5.35,6.68,2.75,13.93,3.89,20.31,7.38,5,2.72,9.82,5.67,14.79,8.38a35,35,0,0,0,10.12,3.75,5.49,5.49,0,0,1,2.36,1H308c-1.08-6.16-2.85-12.25-1.64-18.61.2-1.08-.2-1.42-1.22-1-.36.16-.71.36-1.06.55a20.1,20.1,0,0,0-5.61,4c-1.74,1.85-4.52,2.05-6.69,3.34-3.59,2.14-7.86,2.68-11.52,4.73a1.08,1.08,0,0,1-.67,0c-1.55-.27-1.87.59-1.83,1.89a5,5,0,0,0,1,2.53,4.58,4.58,0,0,1,1.1,2.45H227.57a4.47,4.47,0,0,1,1.78-3.73c2.37-2.09,4.33-4.58,6.5-6.85a20.67,20.67,0,0,0,3.65-6,2.23,2.23,0,0,0-.24-2.73c-2.34-2.12-4-4.88-6.39-6.93a115.67,115.67,0,0,1-9.3-8.38,78.17,78.17,0,0,0-11-9.33,231.88,231.88,0,0,1-20.73-17.45c-1.22-1.12-2.34-2.35-3.53-3.5-3.13-3-6.39-6-8.89-9.49-6.61-9.26-10.77-19.51-11-31.08a1.41,1.41,0,0,0-.64-1.44c-1.69,2.22-3.56,4.35-5.06,6.71a52.44,52.44,0,0,0-5.56,12.23,47.37,47.37,0,0,0-2.32,17.75,94.62,94.62,0,0,0,3.93,21.05c2.38,8,4.44,16.09,7.05,24,.88,2.69,1,5.52,1.59,8.25,1,4.23,2.09,8.44,3,12.68.31,1.37.69,2.8,0,4.21H0Zm362.82-187.9a99.06,99.06,0,0,0-.12-19,107.39,107.39,0,0,0-4.49-23.93c-1.78-5.52-3-11.27-6.39-16.2a13.06,13.06,0,0,0-4.95-4.58c-9.09-4.4-18.54-7.58-28.73-8.14-2.4-.13-4.79-.46-7.18-.76-8-1-16-2.15-24.11-.72a59.14,59.14,0,0,1-8,1.24,37.18,37.18,0,0,0-14.57,3.63,28.59,28.59,0,0,1-7.51,2.33c-5.21.84-10,2.43-14,6.33a40.39,40.39,0,0,0-6.6,8.07c-3.49,5.93-4.15,12.45,1.89,17.42,4.08,3.35,5.29,9.67.16,13.58a3.17,3.17,0,0,0-.39.34c-6.32,6.16-13.55,11.26-20,17.3a12.24,12.24,0,0,0-3.79,6c-1.87,7.48-2.73,15-.44,22.53.94,3.12-.43,5.21-3.58,6.13-1.26.36-2.51.79-3.77,1.17-2.47.73-4.16.3-5.58-1.79a139.15,139.15,0,0,0-9.51-11.73,31,31,0,0,1-3.89-5.4c-1.18-2.18-2.39-4.46-4.44-6.05-3.66-2.86-7.72-5.06-12.44-4.93-2.64.07-5.41-.33-8,.63a18.14,18.14,0,0,0-10.92,10.94,25.87,25.87,0,0,0-1.46,14.75c1.36,6.83,1.44,14,5.67,20a2.69,2.69,0,0,1,.31.61c1.38,3.87,4.21,6.62,7.25,9.16A9.82,9.82,0,0,0,168.5,204a30.46,30.46,0,0,1,6.6,1.83A37.77,37.77,0,0,0,188.26,208c3.23-.08,4.27-1.06,4.5-4.34.13-1.82.1-3.66.18-5.49,0-.6-.07-1.52.72-1.53s.8,1,.82,1.6c0,1.89.09,3.78,0,5.67-.15,4.33-1.78,5.9-6.16,6.08-4.73.21-9.2-1-13.61-2.48-1.27-.44-1.86-.19-1.84,1.2a25.38,25.38,0,0,1-.63,4.24c-.7,4.33-2.63,8.45-2.21,13,.09,1,0,2,0,3.08.08,6.22-.61,12.45.71,18.66,2.19,10.25,6.34,19.42,13.91,26.88,1.5,1.48,3,3,4.43,4.53,4.81,5.34,10.52,9.69,15.78,14.53,3.21,3,7,5.17,10.32,8,3.61,3,7.73,5.5,10.7,9.28a9.58,9.58,0,0,0,1.76,1.36c3.55,2.81,7.17,5.57,10,9.14,1.94,2.44,4.12,3.65,7.23,2.91.6-.14,1.39,0,1.66-.66s-.48-1-.84-1.36a16.49,16.49,0,0,1-3.83-7.32c-1.59-6.44-.8-12.86-.58-19.3A5.9,5.9,0,0,1,242,293c.73-1.33,1.54-1.4,2.51-.26a5.29,5.29,0,0,1,1.15,4.19c-.49,4.34,1.85,7.8,3.92,11.1,1.91,3.05,4.76,5.53,7.52,8,3.66,3.26,7.82,5.78,11.81,8.56a21.07,21.07,0,0,0,7.45,3.39,40.67,40.67,0,0,0,13.47.94c2.65-.29,5.07-1.36,7.58-1.93a38.76,38.76,0,0,0,7.63-2.94,3.83,3.83,0,0,0,1.87-1.7,92.57,92.57,0,0,0,4.48-8.9,40.16,40.16,0,0,1,2.83-6.05c1.3-2.14,2.52-4.34,3.72-6.53,1.6-2.94,2.2-6.27,3.53-9.31a203.67,203.67,0,0,1,9.81-20.36c3.9-6.8,7.22-13.94,12-20.19,1-1.26,2.36-2.36,2.9-3.79,1.4-3.75,3.33-7.3,4.22-11.24,1.59-7,3.38-14,4.78-21.09,2.11-10.62,3.47-21.36,4.55-32.13.29-2.8-.09-5.61.31-8.4.3-2.09-.44-2.87-2.55-2.82-.85,0-1.71.11-2.57.11-4.32,0-8.59-.24-12.59-2.16a2.06,2.06,0,0,0-2.89.63,1.82,1.82,0,0,0,.69,2.67,3.62,3.62,0,0,1,1.19,2,70.65,70.65,0,0,0,6.17,14.5,21.26,21.26,0,0,1,3.08,13.18c-.28,2.49-.42,5.19-2.11,7.15a29.56,29.56,0,0,1-9.16,7.07,5.77,5.77,0,0,0-2.87,2.89c-1.5,3.12-2.95,6.49-7.53,5.82-1.13-.17-2.44.54-3.27-.76s0-2.52.58-3.68a5.56,5.56,0,0,1,.47-.72c.63-.81.79-1.51-.35-2a1,1,0,0,1-.67-1.25c.15-.58.64-.77,1.17-.86a6.93,6.93,0,0,1,1-.12c4.5-.16,8.73-.91,11.91-4.61a4.51,4.51,0,0,1,3.3-1.26c2.48,0,3.73-.82,4.6-3.13,2.26-6,1.46-11.75-1.69-17.17a54.76,54.76,0,0,1-5-10.89c-1.89-6-3.59-12-5.44-17.91-1.06-3.41.11-6.58.91-9.78a3.73,3.73,0,0,1,1.25-1.82c1.94-1.62,3.22-3.86,5.31-5.33a8.31,8.31,0,0,0,3.2-4.33c.78-2.31,2.37-2.85,4.65-2C354.81,139.3,358.83,140.56,362.83,142.57ZM354,169.29h.85c2.63,0,3.08-.64,2.46-3.25-.39-1.66-.72-3.34-1.05-5-.21-1-.56-2-1.78-1.91s-.92,1.26-.94,2a9.48,9.48,0,0,1-1.58,5.66c-.4.54-1.53.75-1.1,1.69s1.44.73,2.28.77C353.44,169.3,353.72,169.29,354,169.29ZM342,162c0-.46,0-.92.1-1.37.12-1-.16-1.28-1.14-.89-3.16,1.26-3.3,1.48-2.51,4.65.13.55.27,1.11.42,1.66s.31.95.84,1a9.17,9.17,0,0,1,3.24,1c.46.17,1.05.5,1.41-.05s-.13-1-.53-1.29A4.7,4.7,0,0,1,342,162Zm5.59-4.28a2.59,2.59,0,0,0-2.18,1.12,1.16,1.16,0,0,0,0,1.43c.36.47.81.32,1.23.09a5.72,5.72,0,0,1,2.11-.58c1-.13,1.16-.65.55-1.39A1.87,1.87,0,0,0,347.63,157.73Z" transform="translate(0 -20.41)"/><path d="M278,144.35c-4.74.86-8.37,4.52-13.16,5.37,3.36-3.68,7.94-5.69,11.77-8.67-.34-.62-.78-.45-1.14-.37a31.78,31.78,0,0,0-6.74,2.51,1.85,1.85,0,0,0-.68.51c-2.43,3.53-6.24,2.44-9.56,2.76-1.49.14-2.26-2.27-1.17-3.83,1.3-1.87,2.52-3.88,4.41-5.23a108.78,108.78,0,0,1,13.85-8.59c5.47-2.78,11.24-3.42,17.17-3.36,4,0,8,.36,12,.54a17.77,17.77,0,0,1,8.86,3,19.79,19.79,0,0,0,4.81,2.6,6,6,0,0,1,2.56,2c.34.38.66.93,1.09,1.05,1.71.48,1.69,1.84,1.73,3.16.07,2.14-1.19,3.34-3.32,3.08A38.93,38.93,0,0,1,316,140a2.42,2.42,0,0,0-3,1c-1.39,2.29-3.48,2.92-6,2.79-1.81-.1-2.55,1-2,2.76.34,1,.74,1.93,1.05,2.91a7.48,7.48,0,0,1,.51,2.15c0,2.47-2.3,2.55-3.75,3.45a2.85,2.85,0,0,1-3.24-.06c-.45-.32-.41-.92-.56-1.41a41.72,41.72,0,0,0-1.34-4.24c-.46-1.14-1.68-1.18-2.9-1.48,1.51,2.61.64,5.16.25,7.74-.42,2.82-1,3.52-3.76,4.07a2.91,2.91,0,0,0-1.77.57c2.61.65,5.11.41,7.6.43.9,0,2.5-.52,2.48.59s-1.56.46-2.43.49-2-.14-2.92-.12c-7.84.12-15-2.31-21.75-6a16.35,16.35,0,0,1-3.05-2.49c-1.1-1,0-1.62.68-2.14,2.41-1.85,4.86-3.64,7.29-5.46a10.46,10.46,0,0,0,.84-.79Zm6.22,3.57a6.05,6.05,0,0,0-.9-.14c-3.57.07-6.05,2.07-8.23,4.63-.9,1.06-.82,1.87.36,2.68a34.2,34.2,0,0,0,8.92,4.31c.43.14,1,.46,1.55-.32C281.4,156.11,283,152.11,284.25,147.92Zm4.79,0c-.24.06-.64.11-1,.23-1.46.44-1.85,2.22-3.35,2.72-.3.09-.39,1.08.15,1.51a.82.82,0,0,0,1.23-.1c1-1.76,2.68-1.92,4.41-2a.88.88,0,0,0,.91-.61,1,1,0,0,0-.3-1.09A2.63,2.63,0,0,0,289,147.92Z" transform="translate(0 -20.41)"/><path d="M298.72,279.2c-3.34.4-6-1.61-9-2.51a2,2,0,0,1-1.13-1c-1.74-3.82-4.12-7.42-4.06-11.88a10.29,10.29,0,0,1,3.43-8.19c4.05-3.63,8-7.4,12.83-10A29.23,29.23,0,0,1,317.1,242a54.81,54.81,0,0,0,8.37-.44c.8-.05,1.59-.21,2.39-.29,5.17-.53,8.32,3.81,6.24,8.65a28.43,28.43,0,0,0-1.09,3.43,5.57,5.57,0,0,1-1.58,2.6,2.13,2.13,0,0,1-3.18.15c-1.87-1.47-2.3-1.3-4.19.05-3.52,2.5-4.41,6.68-6.65,10-1.17,1.75-2.14,3.64-3.34,5.37-1,1.45-1.8,1.36-2.59-.2-.65-1.29-1.49-1.52-2.59-.63a4.3,4.3,0,0,1-2.31,1A4.84,4.84,0,0,0,301.9,277c.06,2.23.06,2.23-2.15,2.2Z" transform="translate(0 -20.41)"/><path d="M294.65,306.75a36.85,36.85,0,0,1-11.35-1.9,6.6,6.6,0,0,1-4.4-4.66,2,2,0,0,1,.46-1.92,1.92,1.92,0,0,0,0-2.49c-1.16-2-.41-4.15.39-6,.56-1.34,2.2-1.57,3.58-.67,3.75,2.42,8,3.67,12.07,5.35a16.18,16.18,0,0,0,7.93,1,9.34,9.34,0,0,0,7.27-4.61c.43-.72.86-1.67,1.91-1.43s1.07,1.23,1.18,2.09c.73,5.78-2.33,10.43-8,12.2a11.3,11.3,0,0,0-2.55,1A16.53,16.53,0,0,1,294.65,306.75Z" transform="translate(0 -20.41)"/><path d="M154.45,167.23a50.15,50.15,0,0,1,.49-5.25c.75-4.21,3.42-7,6.68-9.38a6,6,0,0,1,3.89-1.13c4.61.23,9.16.7,12.86,3.92.39.33.79.65,1.15,1a.77.77,0,0,1,.22.93.73.73,0,0,1-1.05.27c-2.44-1.33-5.15-.58-7.7-1a8,8,0,0,0-4.81,1c-3.2,1.53-3.8,4.81-4.81,7.65a25.78,25.78,0,0,0-1.16,9,35.44,35.44,0,0,1-.42,6.65,9.49,9.49,0,0,0,1.62,7,36.18,36.18,0,0,0,3.56,4.6c.31.33.74.71.37,1.18s-1,.28-1.36-.07a15.85,15.85,0,0,1-1.65-1.73C156.44,185,154.38,176.8,154.45,167.23Z" transform="translate(0 -20.41)"/><path d="M325.83,211.86c-3.75.35-7.14-.46-10.57-.42a2,2,0,0,1-.34,0c-1.26-.21-2.71-.42-3.07-1.8s.88-2.26,1.92-2.95a22.88,22.88,0,0,1,3.57-2c3.56-1.48,7-1.45,10.21,1a20.23,20.23,0,0,0,3.58,2.34c.93.45,1.66,1.15,1.4,2.28a2.12,2.12,0,0,1-2.21,1.58C328.73,211.91,327.12,211.86,325.83,211.86Z" transform="translate(0 -20.41)"/><path d="M308,102.34c7-.31,13.43-.36,19.9-.11a61.58,61.58,0,0,1,12.82,2.35c.47.12.94.32.88.88s-.63.79-1.17.75a7.53,7.53,0,0,1-1.68-.31,53.32,53.32,0,0,0-15.43-2.12q-17.26.12-34.52.18c-.77,0-2.06.47-2.09-.78s1.26-.82,2-.82C295.31,102.33,301.9,102.34,308,102.34Z" transform="translate(0 -20.41)"/><path d="M288.55,92.33a18.33,18.33,0,0,0,6.23-.7c8.24-2.19,16.67-2,25.08-2.1a50.63,50.63,0,0,1,7.88.31,13.42,13.42,0,0,1,3.65.93c.66.3,1.89.36,1.48,1.45-.34.88-1.29.3-2,.11a15.93,15.93,0,0,0-3-.77c-10.81-.65-21.62-1-32.26,1.52a41.16,41.16,0,0,1-9.88.87c-.63,0-1.4,0-1.35-.9s.76-.72,1.34-.72C286.68,92.32,287.59,92.33,288.55,92.33Z" transform="translate(0 -20.41)"/><path d="M312.29,217.4a16,16,0,0,1-3.91-.34c-2.82-.81-4.8-2.3-5.46-5.45-.75-3.56-1.26-7,.84-10.26a13.25,13.25,0,0,1,5-4.6,38.5,38.5,0,0,1,7.73-2.78c.58-.16,1.44-.38,1.61.43s-.76.79-1.31,1c-3.41,1.24-7.07,1.89-9.83,4.6a8.93,8.93,0,0,0-3.08,7,16.66,16.66,0,0,0,1.26,5.66c.79,2,2.64,2.78,4.69,3,1.19.11,2.4,0,3.6.08.75,0,1.91-.29,1.92.82,0,1.28-1.23.84-2,.92A7.28,7.28,0,0,1,312.29,217.4Z" transform="translate(0 -20.41)"/><path d="M337.65,126.58c-.18,4.74-1.23,9.41-1.18,14.16,0,.57-.07,1.28-.82,1.27s-.77-.71-.8-1.28c-.16-3.45.47-6.83.81-10.23a40.23,40.23,0,0,0,.26-6.49c0-.7-.13-1.57.79-1.61,1.08-.06,1,.86,1,1.62S337.65,125.73,337.65,126.58Z" transform="translate(0 -20.41)"/><path d="M329.91,136c0,.51,0,1-.59,1.11s-.72-.31-.86-.69a7.58,7.58,0,0,1-.38-1.49,63.55,63.55,0,0,0-3.22-12.44,8.37,8.37,0,0,1-.59-3.53c0-.49.26-.91.84-.88a.75.75,0,0,1,.71.82c.07,3,1.49,5.62,2.29,8.41S329.34,133.15,329.91,136Z" transform="translate(0 -20.41)"/></svg>