<svg id="Layer_1" data-name="Layer 1" xmlns="http://www.w3.org/2000/svg" viewBox="0 0 122.88 86.54"><defs><style>.cls-1{fill-rule:evenodd;}.cls-2{fill:#fff;}</style></defs><title>omg</title><path class="cls-1" d="M49.4,1.6,65.36,18l.21-.12L77.28,0l5.65,17.06H84.6a7.44,7.44,0,0,1,2.47.41L102,8.21,99.5,23.64l.62-.1a28,28,0,0,1,3.72-.26l1.36,0,1.37.06c.63,0,1.14.09,1.55.14s.83.11,1.49.22h.06c.45.08,1,.19,1.64.34s1,.27,1.61.45l.06,0v0a18.08,18.08,0,0,1,1.72.64,18.39,18.39,0,0,1,1.68.82A7,7,0,0,1,120,32.59h0l-.46,6a6.93,6.93,0,0,1,3,5.44c0,.11,0,.22,0,.34l.29,15.28a6.8,6.8,0,0,1-1.59,4.48h0a17.22,17.22,0,0,1-2.16,2.19,20.94,20.94,0,0,1-2.45,1.73h0v0c-.65.39-1.46.82-2.43,1.28q-.8.38-1.5.66l1.42,10-13-7.86a25.53,25.53,0,0,1-5.14-.56L91.43,84.88l-15-11L57.9,86.54,49,70.78l-2.38.07L31,84.12,29.4,69.65l-.41.12a21.85,21.85,0,0,1-3.12.64,24.19,24.19,0,0,1-3.19.23,25.07,25.07,0,0,1-3.1-.22c-.43-.06-.86-.12-1.27-.2l-.09,0A17.74,17.74,0,0,1,4,61.24c-.34-.47-.66-1-1-1.51a20.87,20.87,0,0,1-1.26-2.5A23.59,23.59,0,0,1,.83,54.6,22.31,22.31,0,0,1,0,48.78a23,23,0,0,1,.18-2.85,22.06,22.06,0,0,1,1.46-5.5,21,21,0,0,1,1.25-2.57l0-.08a22.55,22.55,0,0,1,1.43-2.25,23,23,0,0,1,1.83-2.16v0h0a22.06,22.06,0,0,1,2.12-2,23.61,23.61,0,0,1,2.37-1.69,22.72,22.72,0,0,1,2.63-1.39,25.48,25.48,0,0,1,2.8-1,22.2,22.2,0,0,1,3.13-.68,22.87,22.87,0,0,1,3.15-.22,28.94,28.94,0,0,1,4.54.36l.86.16a90.62,90.62,0,0,0-6.67-15.59l19.45,7.42L43,18.64l6.4-17Z"/><path class="cls-2" d="M38,48.18a15.94,15.94,0,0,1-.51,4A15.3,15.3,0,0,1,36,55.88a14.82,14.82,0,0,1-5.38,5.55A15,15,0,0,1,26.92,63a16.06,16.06,0,0,1-8.37,0,16.1,16.1,0,0,1-3.68-1.48,14.63,14.63,0,0,1-3.1-2.31,14,14,0,0,1-2.36-3A14.8,14.8,0,0,1,7.9,52.72a13.89,13.89,0,0,1-.55-3.94,15.68,15.68,0,0,1,.5-3.93,15.53,15.53,0,0,1,1.47-3.63,16,16,0,0,1,2.29-3.14,15.26,15.26,0,0,1,3-2.46A14.82,14.82,0,0,1,18.27,34a14.25,14.25,0,0,1,4.12-.58,18.71,18.71,0,0,1,6.37,1,14,14,0,0,1,4.92,3,13,13,0,0,1,3.15,4.66A15.77,15.77,0,0,1,38,48.18Zm-10.7.6A6,6,0,0,0,27,46.85a5,5,0,0,0-.88-1.66A4.43,4.43,0,0,0,24.64,44a4.11,4.11,0,0,0-2-.45,5,5,0,0,0-2,.39A4.77,4.77,0,0,0,19.12,45a5,5,0,0,0-1,1.59,5.57,5.57,0,0,0-.33,1.92,6.86,6.86,0,0,0,.29,1.94A5.52,5.52,0,0,0,19,52.24,4.44,4.44,0,0,0,20.4,53.5a4,4,0,0,0,2,.49,4.66,4.66,0,0,0,2-.43A4.48,4.48,0,0,0,26,52.41a5.4,5.4,0,0,0,1-1.67,5.9,5.9,0,0,0,.34-2Zm88.29,11a11,11,0,0,1-2.79,2.37,19.16,19.16,0,0,1-3.57,1.69,23.87,23.87,0,0,1-7.71,1.33A16.9,16.9,0,0,1,95,63.94a15.07,15.07,0,0,1-8.41-8.27,15.69,15.69,0,0,1-1.21-6.15,20.6,20.6,0,0,1,2.33-9.46,18.77,18.77,0,0,1,2.74-3.92,17.06,17.06,0,0,1,3.66-3.07,17.28,17.28,0,0,1,4.48-2,18.32,18.32,0,0,1,5.21-.72c.69,0,1.43,0,2.21.08s1.57.15,2.36.28a17.05,17.05,0,0,1,2.27.54,11.06,11.06,0,0,1,2,.86L112,40.9a13.09,13.09,0,0,0-2.78-.66,24.75,24.75,0,0,0-2.81-.17,11.13,11.13,0,0,0-3.6.56,8.61,8.61,0,0,0-2.91,1.63,7.64,7.64,0,0,0-2.69,6,8.18,8.18,0,0,0,.33,2.32,5.84,5.84,0,0,0,1,2,5,5,0,0,0,4.08,1.92,7.87,7.87,0,0,0,1.89-.23,4.07,4.07,0,0,0,1.68-.78l.09-1.8-5.78-.09.29-6.91q3.59-.12,7.18-.2c2.4,0,4.81-.13,7.23-.21l.29,15.48ZM84.6,24.12,81.94,64.73l-13.19.55.12-21.41-6,17.26H57.82L53.25,45.7l-.06,17.92L39.83,64l.58-38.23,14.86-.55,5.91,18.31,7.87-19.42Z"/></svg>