<?xml version="1.0" encoding="iso-8859-1"?>
<!-- Uploaded to: SVG Repo, www.svgrepo.com, Generator: SVG Repo Mixer Tools -->
<svg fill="#000000" height="800px" width="800px" version="1.1" id="Layer_1" xmlns="http://www.w3.org/2000/svg" xmlns:xlink="http://www.w3.org/1999/xlink" 
	 viewBox="0 0 511.999 511.999" xml:space="preserve">
<g>
	<g>
		<path d="M368.811,221.855c-27.099,0-49.144-22.046-49.144-49.144c0-15.409-12.536-27.945-27.945-27.945
			s-27.945,12.536-27.945,27.945c0,57.916,47.118,105.034,105.034,105.034c15.409,0,27.945-12.536,27.945-27.945
			S384.221,221.855,368.811,221.855z M368.811,260.399c-48.351,0-87.689-39.337-87.689-87.689c0-5.844,4.755-10.6,10.6-10.6
			s10.6,4.755,10.6,10.6c0,36.663,29.827,66.489,66.49,66.489c5.845,0,10.6,4.755,10.6,10.6
			C379.411,255.644,374.657,260.399,368.811,260.399z"/>
	</g>
</g>
<g>
	<g>
		<path d="M291.724,115.857c-13.048,0-25.666,4.536-35.723,12.66c-10.056-8.123-22.675-12.66-35.723-12.66
			c-4.79,0-8.673,3.883-8.673,8.673s3.883,8.673,8.673,8.673c11.12,0,21.797,4.75,29.292,13.033c1.644,1.817,3.98,2.854,6.43,2.854
			c2.45,0,4.786-1.036,6.43-2.854c7.494-8.283,18.171-13.033,29.292-13.033c4.79,0,8.673-3.883,8.673-8.673
			S296.513,115.857,291.724,115.857z"/>
	</g>
</g>
<g>
	<g>
		<path d="M394.386,199.047v-60.668C394.386,62.077,332.304,0,255.995,0c-76.302,0-138.379,62.077-138.379,138.379v60.667
			c-18.536,9.378-31.281,28.599-31.281,50.753c0,28.416,20.953,52.029,48.22,56.199c0.996,25.777,20.406,46.914,45.416,50.594
			l11.037,94.643c2.555,31.42,26.711,56.779,57.495,60.327c2.531,0.291,5.057,0.436,7.565,0.436
			c14.988,0,29.394-5.161,41.211-14.887c13.611-11.203,22.219-27.583,23.636-44.964l11.112-95.555
			c25.009-3.682,44.418-24.817,45.414-50.593c27.269-4.17,48.222-27.783,48.222-56.2
			C425.665,227.646,412.921,208.425,394.386,199.047z M368.811,289.308c-4.79,0-8.673,3.883-8.673,8.673v5.938
			c0,19.794-16.103,35.897-35.897,35.897c-4.402,0-8.106,3.298-8.615,7.671L303.67,450.299c-0.013,0.106-0.023,0.213-0.031,0.32
			c-1.007,12.774-7.343,24.839-17.381,33.101c-10.125,8.335-22.824,12.103-35.767,10.612c-22.621-2.608-40.371-21.376-42.204-44.628
			c-0.009-0.108-0.02-0.216-0.031-0.323l-11.884-101.898c-0.51-4.372-4.214-7.668-8.615-7.668
			c-19.794,0-35.897-16.103-35.897-35.897v-5.939c0-4.79-3.883-8.673-8.673-8.673c-21.784,0-39.507-17.723-39.507-39.509
			c0-21.784,17.723-39.509,39.507-39.509c4.79,0,8.673-3.883,8.673-8.673s-3.883-8.672-8.673-8.672c-2.795,0-5.54,0.212-8.227,0.602
			v-55.169c0-66.738,54.296-121.034,121.034-121.034c66.745,0,121.045,54.296,121.045,121.034v55.17
			c-2.688-0.392-5.434-0.602-8.23-0.602c-4.79,0-8.672,3.883-8.672,8.673s3.883,8.673,8.672,8.673
			c21.785,0,39.509,17.723,39.509,39.509C408.32,271.585,390.597,289.308,368.811,289.308z"/>
	</g>
</g>
<g>
	<g>
		<path d="M220.278,144.765c-15.409,0-27.945,12.536-27.945,27.945c0,27.099-22.046,49.144-49.144,49.144
			c-15.409,0-27.944,12.536-27.944,27.945s12.536,27.945,27.944,27.945c57.916-0.001,105.035-47.118,105.035-105.035
			C248.224,157.301,235.688,144.765,220.278,144.765z M143.189,260.399c-5.844,0-10.599-4.755-10.599-10.6
			c0-5.844,4.755-10.6,10.599-10.6c36.663,0,66.489-29.827,66.489-66.489c0-5.844,4.755-10.6,10.6-10.6s10.6,4.755,10.6,10.6
			C230.879,221.063,191.541,260.399,143.189,260.399z"/>
	</g>
</g>
<g>
	<g>
		<path d="M291.104,310.498c-8.95-9.917-21.745-15.605-35.104-15.605c-13.358,0-26.154,5.687-35.104,15.605
			c-8.95,9.917-13.301,23.225-11.937,36.515l10.347,100.745c1.939,18.881,17.714,33.119,36.693,33.119
			c18.979,0,34.755-14.238,36.694-33.119l10.347-100.745C304.404,333.724,300.054,320.414,291.104,310.498z M285.786,345.24
			l-10.347,100.745c-1.027,10.002-9.385,17.545-19.439,17.545c-10.054,0-18.411-7.543-19.439-17.545L226.214,345.24
			c-0.877-8.538,1.807-16.75,7.558-23.121c5.75-6.371,13.645-9.881,22.228-9.881c8.583,0,16.478,3.509,22.228,9.881
			C283.979,328.49,286.664,336.701,285.786,345.24z"/>
	</g>
</g>
<g>
	<g>
		<path d="M283.235,250.041l-19.726-34.166c-1.548-2.684-4.41-4.336-7.509-4.336c-3.099,0-5.961,1.654-7.51,4.336l-19.726,34.166
			c-4.8,8.314-4.8,18.24,0,26.554c4.8,8.313,13.396,13.277,22.996,13.277h8.479c9.6,0,18.196-4.963,22.996-13.277
			C288.035,268.281,288.035,258.355,283.235,250.041z M268.216,267.921c-0.799,1.384-3.176,4.605-7.975,4.605h-8.479
			c-4.799,0-7.176-3.22-7.975-4.605c-0.799-1.384-2.399-5.053,0-9.209l12.216-21.157l12.214,21.157
			C270.615,262.868,269.015,266.537,268.216,267.921z"/>
	</g>
</g>
</svg>