<?xml version="1.0" encoding="utf-8"?>
<!-- Generator: Adobe Illustrator 25.0.1, SVG Export Plug-In . SVG Version: 6.00 Build 0)  -->
<svg version="1.0" id="Layer_1" xmlns="http://www.w3.org/2000/svg" xmlns:xlink="http://www.w3.org/1999/xlink" x="0px" y="0px"
	 viewBox="0 0 1475.9 1020.2" style="enable-background:new 0 0 1475.9 1020.2;" xml:space="preserve">
<style type="text/css">
	.st0{fill:#110D0D;}
	.st1{fill:#009CD4;}
	.st2{fill:#0088B3;}
	.st3{fill:#0093DC;}
	.st4{fill:#FFFFFF;}
	.st5{fill:#E4B27C;}
	.st6{fill:#E1D8D4;}
	.st7{fill:#BF895D;}
	.st8{fill:#E1D7D3;}
	.st9{fill:#EFD4B8;}
	.st10{fill:#E2D7D3;}
	.st11{fill:#E5A219;}
	.st12{fill:#EED4B7;}
	.st13{fill:#FFE493;}
	.st14{fill:#D7CDCA;}
	.st15{fill:#D0C6C2;}
	.st16{fill:#EFEBEB;}
	.st17{fill:#BF8A5D;}
	.st18{fill:#F9CC03;}
</style>
<g>
	<path class="st0" d="M1121.9,357.2c-1.5-2.2-3.2-3.7-6.1-3c-2.7-0.2-3.2-2.5-3.9-4.4c-2.3-6.9-6.4-12.6-11.7-17.5
		c-6.4-5.8-13.8-8.8-22.5-6.7c-2.8,0.7-3.9,0-5.6-2.1c-9.1-10.8-24.3-13.2-36.1-5.7c-8.7,5.5-14.2,13.9-18.9,22.8
		c-0.9,1.8-1.7,3.6-3.6,4.5c-8.5,3.9-12.3,11.6-15.3,19.7c-3.7,10-3.4,20.5-3,30.9c0.1,2.6-0.5,4.6-2.5,6.6
		c-9.7,9.7-19.5,19.4-29.7,28.6c-14.4,13.2-29.2,25.8-44.5,37.9c-16.1,12.8-32.7,25.2-49.5,37.2c-3.9,2.8-7,3.8-11.1,1.3
		c-3.4-2.2-7.1-1.4-9.6,1.2c-5.5,5.5-11.6,10.5-15.8,17.1c-2.5,3.9-5.3,6.2-10.1,5.6c-1.6-0.2-3.3,0.5-4.9,0.7
		c-10.5,1.9-11.9,0.8-12.1-9.7c0-2.1,0.7-4.3,0.5-6.4c-0.2-2.8,1.1-4.2,3.3-5.5c14.1-9.1,26.6-19.8,36.5-33.4
		c2.6-3.6,5.4-4.2,9.4-3.4c11.4,2.1,20.5-3.3,23-14.8c2.2-10.2,6.2-19.3,11.8-28c2-3.1,3.2-6.8,4.6-10.3c2.9-6.9-4.5-20.2-14.1-19.5
		c-4.2,0.3-7.8,1.6-11.5,2.9c-2.4,0.9-4.1,0.6-5.8-1.1c-5.7-5.6-12-10.5-18.6-14.9c-2.2-1.5-2.6-3.2-2-5.5
		c1.8-7.1,0.9-14.1-1.7-20.8c-0.9-2.3-1-4.1,0.9-6.2c2.5-2.8,5-5.6,6.7-9.2c8-17.2,7-33.4-4.5-48.7c-1.1-1.4-1.9-2.7-0.9-4.9
		c5.5-12.2,2.8-21.3-8.2-29.4c-1.2-0.9-2.4-1.6-2.4-3.4c-0.2-11-3.1-21.4-7-31.5c-9.6-24.4-24.8-43.8-50-53.8
		c-3.2-1.3-5.3-3.1-7.1-6.2c-13.3-23.4-38.1-31.6-63.4-21.2c-1.8,0.7-3.7,1.1-5.3,0.6c-5.8-2-11.6-1.9-17.6-0.9
		c-10.8,1.9-20.2,6.4-27.1,14.9c-7.2,8.8-10.6,19.2-11.2,30.5c-0.2,3.7-1.1,6.8-3.5,10c-12.1,15.8-21.3,33-23.2,53.2
		c-1.5,15.1,0.8,30,4.4,44.7c4.1,16.7,8.4,33.3,12,50.1c1,4.5,2.7,9.1,1.8,14c-2-2.4-3.6-4.9-5.1-7.3c-2.1-3.4-4.2-6.8-6.2-10.2
		c-1.2-2-3.1-2.7-5.1-2c-1.9,0.7-1.3,2.8-1.3,4.4c0,4.2,0,8.3,0.3,12.5c0.6,8.6,1.3,17.2,2,25.8c0.2,1.8,0.7,4.1,2.9,4.1
		c2.6,0,2.4-2.7,1.9-4.2c-1.7-5.5-0.6-11.2-1.5-16.8c-0.8-4.9-0.2-10-0.2-15c5.6,11.7,17.4,19.9,17.5,34.3c0,3.2,0.4,4.8-3.3,6.2
		c-10.5,3.9-16.8,11.8-17.2,23.1c-0.5,13.1,8.4,26.6,25.9,28.3c4.4,0.4,4.7,2.9,4.9,5.6c0.8,10.6,1.7,21.1,2,31.7
		c0.4,14.6-0.7,29.2-1.9,43.7c-0.1,1.7-0.3,3.6-2.4,4.4c-2.1,0.8-3.6-0.2-4.8-1.7c-3.1-3.7-6.8-6.9-10.6-9.8
		c-7.5-5.7-14.7-12.5-25.3-7.1c-1.8,0.9-3.1-0.4-4.4-1.5c-6-4.7-12-9.4-18.1-14c-29.4-22.2-57.2-46.3-82.8-73
		c-9-9.4-17.9-18.4-15.8-33.5c1.2-8.4-0.7-17-3.7-25.2c-1.9-5.2-4.4-10.1-9.3-13c-2.1-1.2-3.1-2.7-3.8-4.8c-3-9-7.5-17-13.5-24.4
		c-11.2-13.7-33.3-15.2-45.4-1.6c-1.2,1.4-2.3,1.7-4.2,1.3c-3.8-0.8-7.6-2.2-11.7-1.3c-13.5,3.1-22.1,12-27.7,24.1
		c-1.1,2.3-2.3,3.7-4.7,4.4c-21.5,6.5-25.2,23.7-24,40.4c1.4,18.8,11.6,34,23.8,48c5.4,6.2,12.4,10.6,17.2,17.3
		c21.1,29.3,43.3,57.8,67.1,85c25.8,29.6,53,57.7,82.4,83.8c2.5,2.2,3.1,4.1,2.3,7.3c-1.5,5.8,0.1,10.9,4.3,15.4
		c12.6,13.5,28.3,21.9,44.9,29.3c7.6,3.4,15.6,5.2,23.6,6.9c3.5,0.8,4.8,2.5,2.3,5.7c-0.7,0.9-1.2,2-1.9,2.9
		c-11.8,17.6-25.2,34.1-38.3,50.7c-19.4,24.6-35.1,51-43.7,81.3c-3.2,11.2-4.7,22.6-5.6,34.1c-0.3,3.7,1,7.2,2.7,10.3
		c1.3,2.3,4,2.2,6.7,2c1-0.1,2.7,1.3,3,2.3c1,3.7,3.6,3.8,6.6,3.3c1.4-2.3-0.5-6,4.2-7.2c17.8-4.4,34.5-12.2,51.7-18.3
		c2.4-0.8,4.7-1.8,7.2-1c34.5,6.4,69.2,11.4,104.2,14.3c22.8,1.9,45.7,3.4,68.6,3.7c22.3,0.2,44.5,0.5,66.8-0.7
		c25.6-1.3,51.1-2.6,75.9-9.9c3.4-1,6.3-0.2,8.6,2.3c2.6,2.8,1.7,6.2,1.4,9.5c-0.2,2.4-1.7,4.8-0.1,7.2c2.2,0.1,4.3,0.1,6.5,0.1
		c5.4,0,9.2-2.7,10.3-8c1.5-8.1,2.8-16.2,3.1-24.5c0.4-11.9-0.7-23.7-2.9-35.5c-3.8-20.9-11.1-40.4-21-59.1
		c-13.6-25.8-31.3-48.3-54.3-66.4c-1.9-1.5-5.9-2.6-5-5.3c0.6-1.9,4.7-1.4,7.2-2c32-6.9,60.4-20.3,83.5-44
		c5.5-5.7,8.6-12.3,7.3-20.2c-0.5-3,0.7-4.6,2.5-6.4c8.7-8.7,17.5-17.3,25.8-26.3c18-19.5,35.8-39.2,52.8-59.5
		c14.6-17.4,28.8-35.1,42.7-53c5.2-6.7,9.5-14,16.9-18.6c17-10.6,29.3-24.9,35.7-44.1C1141.3,386.4,1136.4,368.3,1121.9,357.2z
		 M675.9,176.4c-9.8,4.1-18.4,10.2-27.6,17c0-9.7,2.7-17.7,7.2-24.9c8.4-13.7,21.5-18.1,36.8-17.9c0.8,0,1.7-0.3,2.1,0.8
		c0.4,1.2-0.4,1.8-1.2,2.4c-7.1,5.6-11.8,12.9-15.7,20.8C677.1,175.2,676.5,176.1,675.9,176.4z M717.9,165.8
		c-10.3,1.2-20.4,3.3-29.9,6c-3.3,0.3-3.3-0.9-2-2.8c3-4.2,5.8-8.5,10-11.6c6.9-5.3,19.1-2,23,6
		C719.6,164.7,719.7,165.6,717.9,165.8z M763,169.2c-1.1,1.8-2.6-0.1-3.9-0.4c-9.5-2.1-19.2-3.3-29-2.9c-2.9,0.1-4.8-0.6-6.7-3
		c-3-3.9-6.2-7.8-10.6-10.4c-0.8-0.5-2-1-1.8-2.1c0.3-1.2,1.6-1.5,2.7-1.7c4.2-0.7,8.4-1.3,11.8-1.8c15.2,1.1,27.4,6.2,36,18.3
		C762.4,166.4,763.7,167.9,763,169.2z"/>
	<path class="st1" d="M597.5,849.4c13.2,2.2,26.3,4.5,39.5,6.4c11.8,1.8,23.5,3.4,35.3,4.7c16.2,1.8,32.5,3.5,48.8,4.9
		c9.8,0.8,19.6,0.7,29.3,1.3c26.3,1.4,52.5,1.3,78.8,0.4c25-0.8,50-1.7,74.4-7.6c2.7-0.7,5.4-1.3,8.1-2c10.7-3.1,16.3,2,14,13.2
		c-0.5,2.3-1.2,4.5-1.8,6.7c-1.7,0.1-3.3,0.1-5,0.1c-102.4,0-204.9,0-307.3,0c-1.8,0-3.7-0.1-5.5-0.2c-0.5-0.5-0.1,0.3-0.4-0.2
		c-4.7-8.4-7.6-17.4-8.9-26.9C596.9,850,597.3,849.7,597.5,849.4z"/>
	<path class="st2" d="M597.5,849.4c2,9.6,5.8,18.7,8.8,27.9c-23.6,0-47.2,0-70.8,0.1c-1.5-6.6-1.6-6.7,4.7-8.5
		c17.6-4.9,34.3-12.4,51.4-18.5C593.5,849.8,595.2,848.1,597.5,849.4z"/>
	<path class="st3" d="M1121.9,357.2c-2-1-4.1-2-6.1-3C1119.4,352,1121.8,352.2,1121.9,357.2z"/>
	<path class="st4" d="M643.2,685.6c0.7-1.2,3.7-0.7,2.9-2.6c-1.1-2.4-3.8-0.7-5.8-1.1c-8.4-5.7-17.9-9.3-26.2-15.3
		c-15-10.8-30.5-21.2-42.6-35.5c-1.7-2-4.6-3.7-3.1-7.1c14.7-16.2,27.4-33.9,38-53c6.7-12.1,11.3-25.1,15.9-38
		c2.9-0.6,4.5,1.7,6.3,3.2c16.4,12.8,28.4,29.2,38.7,47.1c3.1,5.4,6.5,10.4,11.1,14.6c3.2,7.6,4.7,15.5,5.9,23.6
		c0.2,1.6-0.5,4.4,2,4.3c1.9-0.1,0.9-2.8,1.1-4.3c0.8-7.2-0.9-14.1-2.9-20.9c-1.1-3.8-0.2-4.8,3.7-4.7c11.6,0.2,23.3-0.3,34.9,0.1
		c5.5,0.2,7.8-2.1,9.1-6.8c3.4-12.2,5.6-24.6,9.9-36.6c0.7-1.9,1.4-3.7,2-5.6c0.4-1.4,1.3-3-0.6-3.9c-1.9-0.9-3.3,0.2-4,1.9
		c-1.8,4.4-3.8,8.8-5,13.4c-2.5,9.2-4.9,18.4-6.5,27.8c-0.5,2.9-1.5,4.9-5.4,4.8c-13.1-0.2-26.2-0.6-39.3,0.3
		c-1.6,0.1-2.5-0.5-3-1.9c-1-3.1-2.1-6.2-3.2-9.3c-0.8-1.8-0.3-3.6,0.3-5.3c4.4-12.2,9-24.3,15.3-35.6c1.7-3.1,4-5.7,7.4-7
		c12.5-0.7,25-0.6,37.5,0.6c6.2,0.6,10.8,3.8,14.7,8.3c11.9,14,22.2,29.2,33.6,43.6c0.9,1.2,1.8,2.4,2.9,3.3c2.7,2.4,5,2.5,7.3-0.9
		c4.5-6.5,8.3-13.4,13.9-19.1l-0.1-0.1c-0.2,1.8,0.6,3.1,1.7,4.5c16.7,22.3,27.2,47.5,34.5,74.2c2.5,9,4.6,18,6.3,27.2
		c-2.2,0.3-3.3-1.3-4.8-1.7c-1.5-0.4-3.5-1.2-4.4,0.8c-0.8,1.7,0.7,2.8,1.9,3.6c4.1,2.8,8.3,5.4,12.4,8.2
		c23.2,15.6,40.2,36.8,54.2,60.6c12.2,20.9,20.5,43.4,24.8,67.1c3,16.5,3.7,33.2,1.2,50.3c-5.2-2.2-8.4-6.3-12.6-9.2
		c-12.4-8.5-26.8-12.4-40.9-16.8c-10.8-3.4-21.9-5.8-32.9-8.1c-15-3.2-30.3-4.8-45.5-6.2c-24.5-2.4-49.1-2.2-73.6-1.6
		c-45.9,1.1-91,7.6-134.8,21.6c-0.3,0.1-0.7,0-1-0.1c-2.8-5.5-1.7-11.5-1.2-17.1c1.3-13.5,1.8-27.2,5.1-40.5
		c6.7-27.2,14.4-54,28-78.7C632.4,698.7,637.9,692.2,643.2,685.6z"/>
	<path class="st5" d="M814.2,385.5c1-0.4,2-0.8,3-1.1c4.1,0.4,7.4,2.8,11,4.5c9,4.3,17.4,9.7,25.3,15.8c1.9,1.5,4,3,4.6,5.7
		c-0.2,1.6-4.2,3.9,0.8,4.7c2.7,0.7,4.8-1,7-2c3.7-1.8,7.4-3,11.5-2.4c7.2,1.1,10.6,7.7,7.3,14.1c-1.8,3.5-4,6.9-5.8,10.5
		c-2.5,5.2-5,10.4-6,16.3c-1.8,10.8-10.3,18.4-21.3,15.3c-0.5-0.1-1,0-1.4,0.2c-3.6-0.7-6-3.3-8.6-5.5c-1-0.8-2.2-2.7-3.8-1.1
		c-1.3,1.3-0.7,3,0.1,4.6c1,1.9,3,2.6,4.4,4c1.6,1.5,2.7,2.6,0.7,4.9c-10,11.9-20.9,22.7-34.2,30.9c-17.2,10.5-35.5,17.7-56,17.3
		c-14.9-0.3-28.4-5.4-40.6-13.9c-9.2-5.7-12.8-15.2-15.9-24.6c-6.9-21.6-3.8-42.5,7.5-61.9c5.1-8.8,13.5-14,22.9-17.6
		c11.2-4.3,22.8-5.5,34.8-4.9c8.9,0.4,17.9,0.5,26.9-0.1C799.1,398.3,807.7,393.8,814.2,385.5z"/>
	<path class="st4" d="M894.2,534c21.6,17,39.4,37.2,52.6,61.4c3.2,5.8,5.3,12.1,6.9,18.4c1.7,6.5-2,11.4-6.2,15.9
		c-17,18-37.9,29.7-61.2,37.2c-8.3,2.7-16.7,4.9-25.4,6.1c-2.9,0.4-3.5-0.5-3.9-3.3c-3.3-18.6-8.5-36.7-15.8-54.2
		c-1.6-3.8-3.3-7.5-5-11.3c-1.2-2.7-1.6-4.8,2.6-4.3c2.8,0.3,5.6-0.3,8.4-0.8c7.2-1.4,8-2.3,6.7-9.6c-1.2-6.8-2.5-13.6-3.8-20.4
		c-1.1-2.5,0.8-3.7,2.3-4.8c12.5-9.6,24.8-19.4,37.3-29C891,534.4,892.3,533.3,894.2,534z"/>
	<path class="st6" d="M643.2,685.6c-0.4,3.5-2.8,6.1-4.8,8.5c-9.2,10.8-14.7,23.5-20,36.3c-8.1,19.9-13.7,40.7-18.2,61.7
		c-1.6,7.2-1.4,14.7-2.6,22.1c-1.5,9.3-1.4,18.8-1.1,28.2c-21.5,7.6-42.1,17.8-64.7,22.4c-9.4,1.9-9.5,2.1-9.2-7.4
		c0.7-19.9,6.5-38.6,14.4-56.7c11.6-26.4,28.1-49.7,46.6-71.7c10.3-12.2,19.5-25.1,28.2-38.5c1.5-2.3,2.9-3.3,6-3.1
		C626.3,688.3,634.9,688,643.2,685.6z"/>
	<path class="st4" d="M772.3,329.4c1.3,21.8-19.8,46.5-47.3,47.1c-20.5,0.4-40.6-11.3-47.4-30c-6.2-16.8-0.8-34.8,10.6-46.7
		c15.2-15.7,38-19.6,58.1-11.1C759.8,294.5,773.7,312.4,772.3,329.4z"/>
	<path class="st4" d="M832.6,357.6c-1.9-4.2-2.8-8.6-6.3-11.8c-5.5-4.9-11.6-6.9-19-5.7c-9.3,1.5-18.3,4.3-27.6,6
		c-2.9,0.5-5,1-3.9-3.8c3.1-12.7,2.2-25.3-4.6-36.9c-1.5-2.6-0.5-3.9,1-5.6c7.7-8.3,17.2-13,28.4-14.5c13.3-1.8,24.9,1.7,34.9,10.4
		c13.4,11.6,18.5,29.6,7.9,48.9C840.7,349.6,837.4,354,832.6,357.6z"/>
	<path class="st6" d="M568.5,624c1.9,5.5,6,9.7,10.1,13.3c18.1,15.6,36.4,30.8,58.4,40.9c1.7,0.8,3.4,1.5,3.4,3.8
		c-21.3,3-41.5-1.6-61.1-9.6c-12.6-5.2-24-12.3-34.6-20.8c-4.1-3.3-4.1-3.9,0.5-6.7C554.3,639.4,561,631.3,568.5,624z"/>
	<path class="st7" d="M814.2,385.5c-3.4,8.8-10.9,12.1-19.2,13.7c-15,2.8-30.3,0.3-45.4,1.1c-15.5,0.9-30.1,5.2-41.1,17.2
		c-7.6,8.3-11.1,18.9-13,29.7c-1.9,10.9-2.3,22,1.2,32.9c3.3,10.3,7.4,20.2,15.5,27.9c-14.5-8.6-24.4-21-27.8-37.5
		c-4.9-24.1,2.6-44.9,19.9-61.9c9.8-9.6,22.4-13.9,35.6-16.3c13.1-2.4,26.3-1.6,39.5-0.6c10,0.7,20-1.4,29.6-4.7
		C810.7,386.4,812.5,386,814.2,385.5z"/>
	<path class="st6" d="M894.2,534c-9.3,5.7-17.3,13.2-26.1,19.6c-5.3,3.9-10.3,8.2-15.6,12.2c-1.3,1-2.4,1.8-2.5,3.4
		c-2.9-8.8-6-17.6-8.7-26.4c-0.9-2.8-2-5-4.3-6.9c-3.1-2.5-4.3-4.9-0.1-8.2c4.6-3.7,7.6-9.1,12.1-13.1c2.4-2.1,4.4-2.7,7.5-1.6
		C870.3,517.9,883,524.5,894.2,534z"/>
	<path class="st4" d="M831.4,537.9c3.2,1.9,4.5,5,5.8,8.3c5.5,13.6,8.1,27.9,11.7,42c0.9,3.6-0.2,6.2-4.3,6.7
		c-3.6,0.4-7.3,0.5-10.9,0.8c-2.1,0.2-2.2-1.7-2.9-2.8c-4.8-7.5-9.2-15.2-14.7-22.3c-1.6-2-3.1-4-6.1-2.6c0,0,0.1,0.1,0.1,0.1
		c2.5-6.2,6.7-11.3,10.3-16.8c1.2-1.9,3.1-3.5,2.6-6.2C825,541.7,827,538.4,831.4,537.9z"/>
	<path class="st6" d="M700.3,532.3c-9.4,9.3-13.2,21.7-18,33.4c-1.9,4.7-3.4,9.7-5.1,14.5c-7.2-14.9-16.1-29-26.6-42.7
		C667.8,535.2,683.9,532.3,700.3,532.3z"/>
	<path class="st8" d="M678.4,598c-7.2-2.9-9.4-9.9-12.9-15.7c-11.4-19-24.6-36.4-43.1-49.1c0.7-4.2,2.1-8.3-0.5-12.7
		c3.8,0.4,5.3,2.9,7.2,4.5C651.8,545,669.1,568.8,678.4,598z"/>
	<path class="st9" d="M850.1,467c1.1-1.1,2.5-0.7,3.8-0.7c10.4-0.3,16.3-4.7,17.8-14.9c1.3-8.7,5.6-15.9,9.6-23.2
		c4-7.5,4.6-10.3,1.2-13.9c-3-3.2-9.6-3.3-15.3-0.5c-2.6,1.3-5,4.6-8.3,1.3c6.8-4,13.1-9.1,21.6-8.7c5.9,0.2,10.1,5.7,9,11.5
		c-0.8,4.3-2.8,8.1-5.1,11.7c-5.1,8-9.3,16.1-10.8,25.8c-1,6.8-4.8,12.3-12.5,13.7C857.3,469.6,853.7,468.1,850.1,467z"/>
	<path class="st10" d="M831.4,537.9c-2.8,2.4-5.6,4.8-8.4,7.2c-3.6-0.7-4.9,2.3-6.6,4.4c-2.9,3.6-5.4,7.4-8.6,11.9
		c-2.3-7.8-1.7-15-1.7-22.1c0-1,0.1-2,1.5-2.1c7.4-0.5,14.8-2.3,22.1-0.1C830.4,537.1,830.9,537.6,831.4,537.9z"/>
	<g>
		<path class="st11" d="M638.9,353c1.1,6,2,12.1,3,18.5c2-1.4,2.1-3,2.4-4.6c1.6-9.1,3-18.3,6.2-27c2-5.6,5.3-5.9,8.9-1.1
			c0.8,1,1.6,2.1,2.1,3.3c4.2,9.5,8,19.2,10.4,29.3c0.5,1.9,0.7,3.9-1.4,4.7c-2.4,0.9-3.1-1.3-3.6-3c-1.6-5-2.8-10.2-4.7-15.1
			c-1.9-5-2.9-10.6-6.8-15.1c-2.1,3.4-2.2,6.6-3.1,9.5c-2.8,9.8-2.3,20.2-7.7,29.5c-2.7,4.6,1,11.1,5.9,12.9c2.8,1,5.4,2.5,7.9,4.2
			c2,1.4,2.9,3.2,0.9,5.3c0,4.8-0.7,9.1-6.2,10.6c-1.5,2.3,1.5,4.6,0,7.4c-2.6-2.2-4.3-6.1-8.7-3.9c-4.3,2.2-1.7,6.3-2.6,9.9
			c-2.8-1.9-3.8-4.4-2.8-6.7c2-4.6,1.8-7-4-6.4c-0.5,0.1-0.9-0.9-1.3-1.4c-2.6-0.8-4.5-3.1-7.2-3.8c-1.3,1.8-1.9,3.8-2.1,6
			c-2.2,18.4,16.4,31.4,33.5,22.8c1.7-0.9,3.7-2.8,5.1-0.1c1.1,2.3-1.3,3.4-2.8,4.5c-0.7,0.5-1.4,0.9-2.2,1.2
			c-2.7,1.1-3.2,2.7-2.9,5.8c2.5,25.6,3.2,51.3,0,76.9c-0.3,2.2-0.2,3.2,2.2,2.9c1.5-0.1,3,0,4.5-0.2c14.8-2.3,29.6-3.2,44.6-3.1
			c-0.1-5.7,0-11.4-2-16.8c-2.9-2.7-5.9-5.3-8.6-8.2c-11.9-12.6-18.1-27.6-17.8-45c0.2-16,5.1-30.5,14.5-43.5c0.9-2,1.6-4.1,1.2-6.3
			c-1.3-7.9-0.5-15.9-0.7-23.9c-0.1-4.2-0.3-8.3-2.5-12c-0.7-0.7-1.3-1.5-2-2.1c-16.1-12.1-22.7-36.8-15-55.5
			c2.6-6.4,6.8-11.7,11.1-16.9c1.3-2.6,0.4-5.3-0.1-7.8c-1.2-6.4-2.3-12.7-3.2-19.1c-2-15-2.4-30.1-0.1-45.1
			c2.8-18.3,13-32.7,25.3-45.9c2.1-2.2,5.5-3.3,6-6.9c-8,0.6-15.6,2.8-23.1,5.2c-8.4,2.6-9.7,4.6-9.8,13.4c-0.1,4.3-0.1,8.6-0.1,13
			c0,1.4-0.3,2.8-2,2.9c-1.4,0.1-2.1-1.1-2.5-2.1c-0.4-1.4-0.6-2.9-0.6-4.4c0-4.7,0-9.3,0.1-14c0.1-2.2-0.7-2.7-2.6-1.7
			c-7.6,4.2-14.9,8.7-20.9,15c-1.9,2-2.4,4-2.5,6.7c-0.2,2.5,3.3,6.2-0.9,7.3c-3.4,0.9-2.3-4.2-4.7-5.5c-1.6,0.3-2.3,1.8-3.1,2.9
			c-11.6,16-17.6,34-18.1,53.7c-0.4,16.5,3.3,32.5,7.5,48.3C632.5,326.1,636.4,339.4,638.9,353z"/>
		<path class="st11" d="M564.7,611.7c-11.7-12-23.4-24.1-35.1-36.1c-20.5-20.8-40.9-41.8-61.1-63c-13.6-14.3-27.8-27.9-39.8-43.7
			c-10.7-14-15.4-29.8-16.9-46.8c-0.5-5.8-1.8-11.1-5.1-15.8c-6.4,14.7-21.6,16.5-33.8,12.8c-6.4-2-11.2-6.2-14.9-11.7
			c-4.6-6.9-2.5-15.3-4.9-22.7c-0.1-0.3,0.5-0.8,0.8-1.2c-0.4-5.5-3.8-9.7-6.1-14.3c-5.4,9-5,18.9-3.2,28.4c3,16,12.4,28.6,23,40.5
			c5.5,6.2,12.7,10.6,17.4,17.6c16.6,24.5,35,47.5,54.1,70c22.3,26.3,45.9,51.6,71,75.3c11.6,11,23.3,21.7,35.1,32.5
			c1.4,1.3,2.9,2.7,5.1,0.7c6.7-6.2,13.2-12.5,19.3-19.3C567.1,615,566,613.1,564.7,611.7z"/>
		<path class="st11" d="M1005.9,359.7c-5.9,11.3-6.8,23.4-5.9,35.7c0.4,4.9-1.4,8.6-4.9,11.9c-8.7,8-17.2,16-25.8,24.1
			c-19.6,18.4-40.4,35.4-61.6,51.9c-11.3,8.8-22.7,17.2-34.2,25.7c-2.9,2.1-3.2,3.1,0.3,5c8.6,4.6,16.6,10.3,24.2,16.4
			c1.6-1.7,3-3.6,4.7-5.1c13.1-11.9,26.4-23.7,39.5-35.6c8-7.2,15.8-14.6,23.9-21.7c11.6-10.1,23.4-20.1,34-31.3
			c7.8-8.3,13.8-17.9,12.7-29.7c-0.7-7.6-0.5-15.2-0.8-22.8c-0.2-4.9,1.2-9.5,3.2-13.9c1.5-3.5,3.3-6.8,4.4-10.5
			c1.7-5.5,5.7-8.8,11.3-10.2c2.1-0.5,4.1-1.2,6.1-1.8c-2.8-0.2-5.6-0.7-8.4-0.6C1018.4,347.1,1011.7,348.6,1005.9,359.7z"/>
		<path class="st11" d="M904,849.7c-20.2-7.9-40.9-13.5-62.3-17.3c-23-4.1-46.2-6.3-69.5-6.6c-22.2-0.3-44.5-0.2-66.7,1.7
			c-13.4,1.2-26.7,2.5-39.9,4.5c-16.8,2.6-33.3,6.5-49.7,10.9c-2.6,0.7-5.7,1.1-8,3.3c10.5,2.6,21.1,3.4,31.4,5.3
			c0.6-1.1,1.6-1.7,2.7-2.1c6.9-2.3,13.7-4.8,20.8-6.7c11-3,22.3-4.7,33.6-6.6c15.2-2.5,30.3-5.4,45.6-6.1
			c14.4-0.7,28.9-0.2,43.3-0.2c1,0,2,0,2.8,0.8c0.7,1.4,2,1.9,3.4,2.2c1-1.9,2.5-2.3,4.5-1.9c9.2,1.7,18.5,3.5,27.8,4.8
			c19,2.8,37.8,6,56.1,12.1c5.9,2,11.9,4.1,17.1,7.7c4-0.9,8.1-1.2,11.8-3.1C907.6,850.4,905.7,850.3,904,849.7z"/>
		<path class="st11" d="M1102.1,359.3c-7.4,2.5-13.2,7.3-18.7,12.6c-5.7,5.5-7.3,12.4-8.7,19.9c-1,5.6,0,9.9,4,13.7
			c1.1-3.6,2-7.3,3.2-10.9c7.1-20.7,25-29.5,43.1-27.3C1119.5,359,1111.3,356.1,1102.1,359.3z"/>
		<path class="st11" d="M1069.1,325.9c-2-2.3-4.3-4.1-7.1-5.3c-18-8-33.1,4.3-39.3,20.8c6.2,0,12.3-0.4,18.1,1.9
			c1.2-2.8,3.3-4.8,5.5-6.8c6.2-5.6,13.8-6.2,21.4-7.1C1069.7,328.7,1070.9,327.9,1069.1,325.9z"/>
		<path class="st11" d="M1092.5,339.5c3.6,0.4,7,1.8,10.5,2.8c-8.7-13.1-21.7-16.6-33-8.6c-5.7,4-9.7,9.4-11.7,16.2
			c-0.6,2.1-0.6,3.8,1.2,5.3c1.8,1.6,3.5,3.5,5.2,5.3c3.4-1.6,4.1-5.1,5.6-7.9C1075.7,342.3,1082.2,338.3,1092.5,339.5z"/>
		<path class="st11" d="M373.6,351.5c7.8,3.5,14.5,8.5,20.5,14.6c3.9,4,6.9,8.7,10.4,14c1.2-2.8,2.1-4.8,2.9-6.9
			c-6.9-8.2-14.1-16.2-20.6-24.7c-4.6-6.1-2.9-11.7,4.2-14.8c4.2-1.8,8.7-2.9,12.6-5.4c-0.4-0.3-0.8-0.7-1.2-0.8
			c-14.7-2.1-25.7,9.5-30.7,20.7C371,349.9,371.9,350.8,373.6,351.5z"/>
		<path class="st11" d="M415.4,328.8c4.3,3.4,7.8,7.6,10.4,12.6c1.6,3,1,8.1,4.2,8.9c2.8,0.7,6.4-1.9,9.6-3.1c-1-1.7-2.2-3.3-3.1-5
			c-5.9-11.5-5.1-15.9,4.1-22.7c-9.2-4.1-17.4-1.5-25.1,3.9C413.3,325,412.6,326.6,415.4,328.8z"/>
		<path class="st11" d="M413.5,395.6c0.5-10.3,4.2-19.4,11.4-26.8c5-5.1,10.3-9.5,17.5-11.8c9.7-3,18.6-0.7,27.6,2.2
			c0.1-0.4,0.3-0.8,0.4-1.1c-9.1-5.8-19.1-6.9-29.4-5.1c-15.2,2.7-24.1,13.4-30.7,26c-3.2,6-3.3,13.1,1.3,19.2
			C412.7,397.8,413.5,396.9,413.5,395.6z"/>
		<path class="st11" d="M800.2,384.3c8.4-2,16.8-4.1,21.9-12.1c-2,0-3.9,0.1-5.8,1c-12.4,5.3-25.3,7-38.8,5.3
			c-7.1-0.9-14.4-0.4-19.2,6.6C772.2,385.9,786.2,387.6,800.2,384.3z"/>
		<path class="st11" d="M387.9,415c4.9-1.1,9.3-2.9,11.9-7.7c-8.6,3.5-16.6,1.6-24.2-3c-1.6,4.4-4.4,1.9-6.6,0.9
			c-3-1.2-4.8-4.3-8-5.3c-0.7,1.3,0,2.3,0.5,3.4C366.3,412.7,377.1,417.5,387.9,415z"/>
	</g>
	<path class="st12" d="M858.1,410.3c-10.6-9.9-23.1-17-36.2-23.2c-1.6-0.8-3.1-1.8-4.7-2.7c2.9-2.1,5.8-2.2,9.1-0.6
		c11.4,5.5,22.2,11.9,31.9,20.1C860.8,406.2,861.8,408.3,858.1,410.3z"/>
	<g>
		<path class="st13" d="M1130.1,374.4c-0.7,5.6,0.3,11.3-0.8,16.9c-3.6,18.5-15.6,30.8-30.3,40.9c-9.7,6.6-18.5,13.4-25.4,23.2
			c-12.3,17.5-25.6,34.4-39.4,50.8c-13.5,16.2-28,31.5-42.2,47.1c-12.9,14.3-25.6,28.8-39.9,41.8c0.9,1.9,2,3.8,2.6,5.8
			c1,3.3,2.3,3.6,4.7,1c2.7-2.9,5.7-5.6,8.4-8.5c16.8-18.1,33.8-36.1,50-54.7c22.2-25.5,43.7-51.6,64-78.6c3.8-5,6.9-10.8,13-14.1
			c18.1-9.9,30.1-25.1,36.3-44.7C1134,392.5,1134,383.3,1130.1,374.4z"/>
		<path class="st13" d="M517.1,446.8c-12.2-11.6-23.8-23.6-33.8-37.2c-1.1-1.6-1.8-3-1.8-5c0.4-10,0.2-20-2.2-29.7
			c-1.5-6.1-2-13.3-8.9-16.8c-0.3,0.3-0.4,0.7-0.4,1.1c2.9,5.2,5.6,10.4,6.7,16.4c1.5,9,0.1,17.8-1.6,26.5
			c-1.2,6.1-0.9,11.5,3.7,16.6c6.5,7.3,13.2,14.4,20.5,20.9c12.1,10.9,23.5,22.5,35.9,33.1c13.5,11.5,27.6,22.4,41.7,33.1
			c7.5,5.7,15.8,10.3,25.3,12.2c-7-5.5-13.9-10.9-20.9-16.5C559.3,484.1,537.5,466.2,517.1,446.8z"/>
		<path class="st13" d="M833.8,268.2c-5.2-2.9-6-7.5-6.6-12.2c-2.2-18-8-34.5-18.7-49.2c-9.3-12.6-20.6-22.8-36-27.3
			c-1.1-0.5-1.3,0-1.2,1c4.2,3.2,8.8,6,12.7,9.5c21.3,19.6,31.1,44.8,34.9,72.7c0.5,4.1,1.8,6.5,5.4,8.6c6,3.4,8.3,8.8,7.2,14.9
			c1.2,0.9,2.5,1.7,3.6,2.6c2.8,2.4,4.1,0.8,4.9-1.8C842.2,280.5,839.8,271.6,833.8,268.2z"/>
		<path class="st13" d="M801.1,526.1c0.8-10.6,0.8-10.6-8.7-6.9c-0.4,0.2-0.8,0.6-1.2,0.8c-0.4,8.8,1.5,17.4,2.1,26.1
			c0.8,10.7,1.9,21.3,2.9,32c3.3-3.8,7.3-7.4,6.7-13.1C801.5,552.1,800.1,539.2,801.1,526.1z"/>
		<path class="st13" d="M808.4,345c-10,2.7-20.2,4.7-30.4,6.2c-4.5,0.6-7.4,2-8.8,6.3c10.9-0.7,21.4-3.2,32.4-3.7
			c12-0.6,19.9,4.4,21.9,16.6c3.3-3.7,3.1-8.3,2.6-12.7C825,348.1,815.2,343.2,808.4,345z"/>
		<path class="st13" d="M1044.2,397.1c6.3,3.8,12.8,4.1,19.2,0.4c6.5-3.8,7.1-10.2,6.5-17c-0.3-3.5-2.1-6.4-3.9-9.4
			c-1.1,1.4-0.9,3.1-1.2,4.7c-0.8,3.9-1.5,7.8-4,11.1c-4.6,5.9-12.6,7.1-20.8,3.4c-1.6-0.7-3-3.1-5.2-1.1
			C1037.3,392.7,1040.7,395,1044.2,397.1z"/>
		<path class="st13" d="M448.4,384c-5.7,8.8-13.5,13.7-24,14.4c-2.7,0.2-5.2,1.3-5.3,4.7c1.4,1.6,3.3,1.3,5.1,1.3
			c9.8,0,17-5.3,23.4-11.9c3-3.1,4.5-7.2,7.9-9.9C452.5,380.3,450.2,381.2,448.4,384z"/>
		<path class="st13" d="M834.9,362.5c-1.6,0-2.8,0.9-2.8,2.8c0.3,5.3-0.5,10.7,0.9,16c3.7,2.8,4.9,2.1,5.5-2.7
			c0.5-4.6-0.3-8.8-1.3-13.2C836.8,364.1,836.5,362.4,834.9,362.5z"/>
	</g>
	<path class="st14" d="M536.4,637.8c0.5-1-1-3.4,1.5-3.1c2.3,0.3,4.5,1.9,4.7,4.4c0.3,2.5-2.3,3.6-3.9,3.5
		C536.1,642.5,536.6,639.8,536.4,637.8z"/>
	<path class="st15" d="M614.3,516.9c2,0,3.4,1.1,4,3c0.2,0.7,0.2,1.9-1,1.7c-2-0.3-3.9-1.2-4.7-3.1
		C612,517.1,613.4,517.1,614.3,516.9z"/>
	<path class="st16" d="M932.3,867.5c1.6,1.3,3.5,2.1,2.1,4.3c-0.4,0.7-1.3,1.5-2,0.9C930.7,871.1,932.3,869.5,932.3,867.5z"/>
	<path class="st17" d="M864.4,427.4c-2.5,3.3-5.8,5.9-7.6,9.6c-1.6,3.3-2.7,7.2,0.4,10.1c2.9,2.8,6.6,2.5,9.9,0
		c0.2,3.4-1.3,6-4.6,6.7c-3.9,0.9-7.3-0.5-9.7-3.7c-4.9-6.6-1.5-17.9,6.5-21.4C860.8,428.1,862.6,427.9,864.4,427.4z"/>
	<g>
		<path class="st18" d="M614.8,526.5c-4.2-2.8-8.4-5.6-12.6-8.4c-7.5-4-15.8-6.5-22.5-11.8c-17.4-13.7-35.3-26.6-51.6-41.7
			c-5.7-5.3-11.4-10.7-17.2-16c-10.3-9.6-21.2-18.6-30.3-29.6c-4.4-5.3-5.7-10.7-4.2-17c1.3-5.7,2.2-11.5,2.2-17.3
			c0.1-9.5-1.6-18.5-8.3-25.9c-11.4-5.9-23.2-6.8-34.4-0.5c-12.4,7-20.8,17.4-23.3,31.9c-0.4,2.6-0.6,5.3-1.1,7.9
			c1.6,2.9,4.1,4.5,7.4,4.9c1.9-1.5,3.7-3.4,6.4-3.6c10.2-0.8,17.7-6.2,23.6-14.1c1.6-2.2,3.7-3.3,6.4-2.9c4.6,0.3,3.6,2.9,2,5.4
			c-4.5,7.1-10.2,13-17.6,17.2c-1.8,1-2.5,1.6-1.9,4.1c1.8,7.4,0.9,14.8-2.8,21.5c-0.8,1.4-1.8,4-3.8,3c-1.7-0.8-0.4-2.9,0.2-4.4
			c1.8-5,2.6-10.2,2.1-15.6c-0.3-3.4-1.5-5.2-5.6-4.6c-6.5,0.9-12.7,0-17.9-4.8c-2.7-2.5-3.2-0.5-3.5,1.8c0.3,4.5,3.7,8.2,3.6,12.8
			c-0.1,6.5,2,12.8,2.7,19.2c1.8,15.6,11.4,27.5,20.6,39.2c12.4,15.8,27.2,29.6,41.3,43.9c20.1,20.5,39.7,41.6,60.4,61.6
			c0.8,0.8,1.6,1.7,2.4,2.6c8.3,10,18.1,18.6,27.2,27.8c1.2,1.2,2.5,2.9,4.7,1.6c6.5-7,12.4-14.6,18-22.4
			c13.1-18.3,22.2-38.4,28.3-59.9C616.4,530.4,617.4,528.3,614.8,526.5z"/>
		<path class="st18" d="M1130.1,374.4c-0.9-2.9-2.5-5.4-5-7.2c-1.5-1-3-2-5-1.9c-14.8,0.6-26.9,6.3-34.7,19.1
			c-3.9,6.3-7.3,13.1-6.6,21c6.8,5.7,14.5,7.6,23,4.7c5.8-2,9.7-6.2,12-13c-4.4,2.5-7,6.3-11.6,6.2c-1.1,0-2.5,0.6-3.1-0.8
			c-0.5-1.4,1-2.1,1.8-2.6c6.7-3.9,12.3-8.9,16.9-15.2c0.7-1,1.6-1.9,2.9-1.1c1.5,0.8,1.2,2.1,0.6,3.5c-0.7,1.7-1.6,3.1-1.6,5.1
			c0,11.3-7.9,20.9-20.7,23.7c-11.6,2.6-24.3-3.5-28.2-13.4c-0.9-2.4-2-2.4-4-1.2c-4.3,2.7-9.1,4.5-14.1,3.6
			c-3.1-0.6-4.5,0.5-6.3,2.5c-4.5,4.9-7.7,10.2-7.7,17.2c0,1.6-0.5,4-3.1,3.6c-2.5-0.4-1.6-2.5-1.7-4c-0.3-7,2.7-12.9,7-18.1
			c2.2-2.7,2.5-4.1-0.9-6c-8.1-4.5-13.3-11.7-17.6-19.7c-0.8-1.5-2.3-3.4,0.1-4.7c2.3-1.2,3,1.1,4.1,2.5c2.7,3.8,4.7,7.9,8.3,11
			c1.4,0.1,2.4,1.1,3.5,1.7c13.2,6.6,24.8,1,27.6-13.5c0.4-2.1,0.3-4.3,0.1-6.4c-6.7-11.5-16.1-19.8-29.1-23.6
			c-1.2,0.7-2.6,0.4-3.9,0.5c-7.9,0.7-12.7,5.1-15.1,12.4c-0.4,1.3-0.6,2.6-1.3,3.7c-7.6,12.1-6.3,25.6-5.4,38.8
			c0.4,5.8,0.1,11.1-1.7,16.6c-2.5,7.3-7.3,13-12.5,18.4c-13.9,14.1-29.2,26.6-43.8,39.9c-17,15.6-34.2,31-51.3,46.5
			c-1.8,1.6-4.3,2.9-3.8,5.9c21.9,18.4,40.9,39.2,54.2,64.8c2.8,0.2,4-2.1,5.6-3.7c16.6-15.9,31.6-33.3,47-50.2
			c11.8-12.9,23.7-25.6,34.7-39.2c4.9-6.1,9.5-12.4,14.3-18.6c7.8-10,15.9-19.7,23-30.1c4-6,8.9-10.7,14.8-14.6
			c5.8-3.8,11.7-7.7,17-12.2C1124.4,412.7,1134.1,396.4,1130.1,374.4z"/>
		<path class="st18" d="M687.8,293.8c9.5-7.8,20.3-13.3,32.7-14.2c16.7-1.2,31.3,4.1,43.3,15.9c2.4,2.3,3.8,2.4,6-0.1
			c5.7-6.6,13.1-10.5,21.3-13c14-4.3,27.4-2.3,40.4,3.9c2.2-1.3,1.8-3.4,1.3-5.3c-1.2-4.3-3.1-8.2-7.2-10.4
			c-3.4-1.8-4.8-4.4-5.3-8.3c-3.1-23.7-11.1-45.5-26.5-64.1c-6-7.3-12.8-13.9-21.6-18.1c-1.6-1.1-3.6-1.4-4.9-2.9
			c-17.8-6.7-36.1-8.3-54.8-5.5c-5.4,4.5-10.4,9.4-14.9,15c-11.1,13.6-17.9,28.9-19,46.4c-1.3,21.4,1.1,42.5,5.9,63.4
			C685.5,295.7,686.6,294.8,687.8,293.8z"/>
		<path class="st18" d="M889.8,850.1c-12.9-5.6-26.4-9.2-40.1-11.7c-17.1-3.1-34.5-5.3-51.6-8.5c-2.5-0.5-5-0.7-7,1.3
			c-3.8,3.9-3.8,4-0.1,7.7c1.6,1.5,3.2,3.1,2.2,5.6c-1,2.4-3.1,3.4-5.5,3.7c-3.2,0.4-5.9-0.7-7.8-3.4c-1.6-2.2-1-4.4,0.3-6.5
			c1.4-2.1,3.6-3.4,5.5-4.9c1.2-1,3.6-1.7,2-4.1c-1-0.7-2.2-0.9-3.3-0.9c-20,0-39.9-0.9-59.8,1.9c-12.2,1.7-24.3,3.9-36.5,5.7
			c-15.2,2.2-30,6.1-44.4,11.4c-2,0.7-4.3,1.2-4.3,4.1c1.5,0.1,3,0,4.5,0.3c22.8,4,45.9,5.8,68.9,7.7c19,1.6,38,2.6,57.1,3
			c29,0.5,58,0.5,87-1.6c13.5-1,26.9-2.6,40.2-5.3C896,851.8,892.5,851.3,889.8,850.1z"/>
		<path class="st18" d="M823.4,370.4c1.3-9.3-7.3-18.6-17.6-18.2c-6.3,0.2-12.6,0.3-18.8,1.1c-6,0.8-12.1,1.6-17.8,4.1
			c-4.1,5.2-8.6,10-14.2,13.8c-10.4,7.1-22,10.4-34.5,9.9c-10.9-0.5-21-3.7-30.2-9.8c1.8,14,0.1,28.2,2,42.2
			c8.5-10.8,19.5-18.2,32.4-22.8c10.8-3.8,22.1-4.9,33.5-5.5c5.9-4,12.3-6.1,19.6-5.1c15.5,2,30.2-0.8,44.2-7.7
			C822.5,371.7,823,371,823.4,370.4z"/>
		<path class="st18" d="M378.4,360c-11.8-7.8-24.9-3.9-30.8,9.3c0.2,5.6,4,9.6,6.1,14.3c1.1,0.3,2.3,0.6,2.9,1.7
			c4.8,7.8,11.9,13.4,18.9,19c6,6.9,17.2,8.3,24.2,3c5.4-5.4,4-11.7,2.3-18C398.6,376.1,389.5,367.3,378.4,360z"/>
		<path class="st18" d="M706.3,526.9c7.8,0.1,15.6,0,23.4,0.3c10.6,0.3,19.8,3.4,27.3,11.8c11.1,12.4,20.4,26.1,30.1,39.5
			c5.1,7.1,5,7.1,9.2-0.3c0.7-1.4,0.8-2.8,0.7-4.4c-0.6-16.6-2.9-33.1-4.3-49.6c-0.1-1.5-0.3-3-1.5-4.1c-1.1,0.3-2.2,0.7-3.3,1.1
			c-14.2,5.3-28.7,8.4-44,5.7c-14.5-2.5-27.7-8.2-39.6-16.8C704.4,515.8,703.6,521.5,706.3,526.9z"/>
		<path class="st18" d="M407.5,373.3c3.2-6.4,8.3-11.2,13.5-15.7c2.9-2.5,3.5-5.3,2.4-8.4c-3.3-10-8.8-18.1-19.8-20.8
			c-4.2-0.6-7.4,2.4-11,3.5c-9.7,3-12,10.2-6.1,18.5c5.2,7.3,11.8,13.4,16.8,20.8C404.2,372.4,405.5,373.7,407.5,373.3z"/>
		<path class="st18" d="M1073.2,374.9c2-0.6,2.6-2.1,3.6-3.2c6.8-7.9,14.5-14.4,24.6-17.6c7.6-2.5,7.6-2.5,3-9.9
			c-0.4-0.7-1-1.3-1.5-1.9c-12.3-7.8-24.9-5.1-32.4,7.3c-2.1,3.5-4.3,7.1-5.9,10.9C1068,365,1071.4,369.5,1073.2,374.9z"/>
		<path class="st18" d="M439.6,347.2c8.2,0.1,16.4,0,25.1,2.2c-1.8-6.2-4.2-11.3-7.6-15.9c-4.4-5.9-8.3-12.5-16.5-14
			c-3.5,0.4-5.3,2.9-7.1,5.5C429.1,331.6,432.9,342,439.6,347.2z"/>
		<path class="st18" d="M652.1,415.5c0.2,0.2,0.6,0,1-0.1c6.9-0.7,8.7-4,6.2-11c-1.5,0-2.8-0.6-4.1-1.5c-11.3-7.2-21.7-4.5-28.8,7.3
			c1.7,2.5,3.6,4.6,7,4.2C639.9,411.3,646.1,411.4,652.1,415.5z"/>
		<path class="st18" d="M1049.8,347.2c2.7,2.1,3.9,1.1,5-1.6c2.7-6.7,7.3-12,13-16.3c-0.2-0.2-0.4-0.6-0.7-0.7
			c-7.8-1.6-22.2,4.7-26.4,11.4c-0.8,1.3-0.3,2.1,0.2,3.2C1044,344.2,1047.2,345.2,1049.8,347.2z"/>
		<path class="st18" d="M827.7,375.5c-1.4,2.5-1.1,3.8,1.6,4.6c1.2,0.4,2.4,0.8,3.7,1.2c1.1-5.4,1.2-10.7-0.9-16
			C830.6,368.7,829.5,372.3,827.7,375.5z"/>
		<path class="st18" d="M782.8,841.8c-0.1,2.1,2,2.7,3.7,3c1.5,0,3.4,0.5,3.6-1.7c0.2-2.1-1.8-2.8-3.3-3
			C785.3,839.9,782.9,839.7,782.8,841.8z"/>
	</g>
	<circle class="st0" cx="723.7" cy="330.4" r="8.5"/>
	<circle class="st0" cx="826.3" cy="317.6" r="8.5"/>
</g>
</svg>
