<svg width="210" height="38" viewBox="0 0 210 38" fill="none" xmlns="http://www.w3.org/2000/svg">
<path d="M19.082 1.67188H19.3164C21.8945 1.67188 25.3841 2.19271 29.7852 3.23438V3.3125C25.8919 8.88542 22.6302 13.1302 20 16.0469L18.4375 17.4531C19.0104 20.0964 19.5898 23.5859 20.1758 27.9219C21.0612 30.8385 21.4648 33 21.3867 34.4062C21.3216 35.5 21.1068 36.0469 20.7422 36.0469C16.0417 36.6849 12.513 37.3359 10.1562 38C9.58333 37.0365 9.34245 35.7604 9.43359 34.1719L9.96094 29.0156L10.0195 22.6875C10.0846 21.3984 10.3841 19.7839 10.918 17.8438V17.6094C10.9701 16.8672 9.98047 15.487 7.94922 13.4688C7.96224 13.3125 6.54297 11.776 3.69141 8.85938C1.50391 6.5026 0.273438 4.73177 0 3.54688C1.64062 2.45312 3.6263 1.90625 5.95703 1.90625H6.42578C7.80599 1.90625 8.56771 2.19271 8.71094 2.76562C8.67188 3.44271 8.98438 3.98958 9.64844 4.40625C11.0156 5.98177 12.0703 7.57031 12.8125 9.17188C13.6458 10.7214 14.2904 11.6849 14.7461 12.0625C15.1367 12.0625 15.612 11.4896 16.1719 10.3438C16.4193 9.41927 16.7643 7.51823 17.207 4.64062C17.8451 2.66146 18.4701 1.67188 19.082 1.67188ZM33.5547 2.375H34.8438C35.612 2.375 38.0794 2.66146 42.2461 3.23438L43.457 3.3125H43.6328L48.2617 3.15625C49.1992 3.15625 50 3.36458 50.6641 3.78125V4.875C50.6641 8.65104 50.5469 11.2227 50.3125 12.5898L39.7656 13.332C38.8411 14.2044 38.6068 15.9688 39.0625 18.625C39.0625 19.7188 39.5247 20.2656 40.4492 20.2656C43.1055 20.4349 44.4336 20.6693 44.4336 20.9688C44.681 21.6979 44.8047 22.4271 44.8047 23.1562C44.8047 25.1875 44.681 26.2031 44.4336 26.2031L42.7734 26.3594H41.1914C40.293 26.3594 39.681 27.349 39.3555 29.3281L39.6289 30.5L42.5 30.7344L44.9219 30.3438C47.2135 30.3438 48.3594 30.6562 48.3594 31.2812C48.7891 32.2969 49.0039 33.2865 49.0039 34.25C48.8737 36.0208 48.6263 36.9062 48.2617 36.9062L46.7773 36.8281C45.8138 36.8281 41.4062 37.1927 33.5547 37.9219L31.25 38C30.8073 38 30.5859 37.6615 30.5859 36.9844C30.2214 33.3646 30.0391 29.7188 30.0391 26.0469L30.3125 7.29688L30.2148 3.15625C31.2044 2.63542 32.3177 2.375 33.5547 2.375ZM56.0547 2.375H57.3438C58.112 2.375 60.5794 2.66146 64.7461 3.23438L65.957 3.3125H66.1328L70.7617 3.15625C71.6992 3.15625 72.5 3.36458 73.1641 3.78125V4.875C73.1641 8.65104 73.0469 11.2227 72.8125 12.5898L62.2656 13.332C61.3411 14.2044 61.1068 15.9688 61.5625 18.625C61.5625 19.7188 62.0247 20.2656 62.9492 20.2656C65.6055 20.4349 66.9336 20.6693 66.9336 20.9688C67.181 21.6979 67.3047 22.4271 67.3047 23.1562C67.3047 25.1875 67.181 26.2031 66.9336 26.2031L65.2734 26.3594H63.6914C62.793 26.3594 62.181 27.349 61.8555 29.3281L62.1289 30.5L65 30.7344L67.4219 30.3438C69.7135 30.3438 70.8594 30.6562 70.8594 31.2812C71.2891 32.2969 71.5039 33.2865 71.5039 34.25C71.3737 36.0208 71.1263 36.9062 70.7617 36.9062L69.2773 36.8281C68.3138 36.8281 63.9062 37.1927 56.0547 37.9219L53.75 38C53.3073 38 53.0859 37.6615 53.0859 36.9844C52.7214 33.3646 52.5391 29.7188 52.5391 26.0469L52.8125 7.29688L52.7148 3.15625C53.7044 2.63542 54.8177 2.375 56.0547 2.375ZM80.4492 0.1875H80.8008C81.1523 0.1875 82.7344 0.552083 85.5469 1.28125H91.4648L98.2617 1.20312C99.082 1.20312 99.4857 1.30729 99.4727 1.51562C99.4076 2.19271 99.5964 3.85938 100.039 6.51562C100.078 10.6172 100.332 13.4818 100.801 15.1094C101.973 18.8984 103.301 25.9036 104.785 36.125C104.564 36.5026 103.717 36.737 102.246 36.8281L101.465 36.75H101.367L96.2109 37.1406H96.0352C94.5638 37.1406 93.8672 36.724 93.9453 35.8906L92.2852 22.0625C90.0326 21.6458 88.5807 21.4375 87.9297 21.4375H87.6758C86.6081 21.4375 86.0482 21.6979 85.9961 22.2188L85.8789 22.6875C86.1784 25.6042 86.3086 27.2708 86.2695 27.6875L86.2109 29.3281L85.918 31.4375L85.6836 33.8594L85.5664 36.8281C83.8867 37.6094 81.9987 38 79.9023 38C76.9076 37.8698 75.4297 37.6354 75.4688 37.2969C75.1823 34.7448 75.1823 31.9844 75.4688 29.0156L78.0469 11.3594L78.1055 10.8125L78.3398 7.375C79.1081 2.73958 79.5703 0.421875 79.7266 0.421875L80.4492 0.1875ZM85.4688 14.875C85.2604 17.0625 85.4492 18.1562 86.0352 18.1562C86.8685 18.5208 87.8841 18.7031 89.082 18.7031H90.0391C91.0156 18.7031 91.7513 18.4427 92.2461 17.9219L91.0547 12.8438V10.1094H91.1328L91.0547 10.0312L91.1523 9.09375C91.2826 7.6875 90.7617 6.98438 89.5898 6.98438H89.1406C88.776 6.98438 88.2617 7.14062 87.5977 7.45312C86.3737 10.3698 85.6641 12.8438 85.4688 14.875ZM110.527 0.1875H110.879C111.23 0.1875 112.812 0.552083 115.625 1.28125H121.543L128.34 1.20312C129.16 1.20312 129.564 1.30729 129.551 1.51562C129.486 2.19271 129.674 3.85938 130.117 6.51562C130.156 10.6172 130.41 13.4818 130.879 15.1094C132.051 18.8984 133.379 25.9036 134.863 36.125C134.642 36.5026 133.796 36.737 132.324 36.8281L131.543 36.75H131.445L126.289 37.1406H126.113C124.642 37.1406 123.945 36.724 124.023 35.8906L122.363 22.0625C120.111 21.6458 118.659 21.4375 118.008 21.4375H117.754C116.686 21.4375 116.126 21.6979 116.074 22.2188L115.957 22.6875C116.257 25.6042 116.387 27.2708 116.348 27.6875L116.289 29.3281L115.996 31.4375L115.762 33.8594L115.645 36.8281C113.965 37.6094 112.077 38 109.98 38C106.986 37.8698 105.508 37.6354 105.547 37.2969C105.26 34.7448 105.26 31.9844 105.547 29.0156L108.125 11.3594L108.184 10.8125L108.418 7.375C109.186 2.73958 109.648 0.421875 109.805 0.421875L110.527 0.1875ZM115.547 14.875C115.339 17.0625 115.527 18.1562 116.113 18.1562C116.947 18.5208 117.962 18.7031 119.16 18.7031H120.117C121.094 18.7031 121.829 18.4427 122.324 17.9219L121.133 12.8438V10.1094H121.211L121.133 10.0312L121.23 9.09375C121.361 7.6875 120.84 6.98438 119.668 6.98438H119.219C118.854 6.98438 118.34 7.14062 117.676 7.45312C116.452 10.3698 115.742 12.8438 115.547 14.875ZM138.145 2.375C139.941 2.375 142.819 2.66146 146.777 3.23438L146.621 5.34375L146.484 19.7969L148.418 20.0312C149.538 20.0312 151.113 19.7708 153.145 19.25C152.676 15.3568 152.266 10.7214 151.914 5.34375C151.823 5.34375 151.738 4.875 151.66 3.9375C151.686 3.15625 152.083 2.76562 152.852 2.76562C155.104 2.50521 157.129 2.375 158.926 2.375C161.934 2.49219 163.431 2.80469 163.418 3.3125V6.28125L162.949 16.2031C162.754 23.026 163.385 30.0833 164.844 37.375C164.219 37.7917 163.346 38 162.227 38L156.66 37.5312H154.922C153.776 37.5312 153.21 37.1667 153.223 36.4375C152.871 35.5 152.715 34.1979 152.754 32.5312L152.871 28.625L153.086 24.6406C153.099 23.9375 152.734 23.2604 151.992 22.6094C148.464 22.7656 146.693 23.0781 146.68 23.5469L146.523 25.1094L146.855 37.0625C146.842 37.4271 146.263 37.6094 145.117 37.6094H144.16C142.467 37.6094 140.26 37.2708 137.539 36.5938C136.732 33.4297 136.198 25.2005 135.938 11.9062C135.469 8.18229 135.221 5.73438 135.195 4.5625C135.234 3.10417 135.449 2.375 135.84 2.375H138.145ZM169.004 2.375C170.801 2.375 173.678 2.66146 177.637 3.23438L177.48 5.34375L177.344 19.7969L179.277 20.0312C180.397 20.0312 181.973 19.7708 184.004 19.25C183.535 15.3568 183.125 10.7214 182.773 5.34375C182.682 5.34375 182.598 4.875 182.52 3.9375C182.546 3.15625 182.943 2.76562 183.711 2.76562C185.964 2.50521 187.988 2.375 189.785 2.375C192.793 2.49219 194.29 2.80469 194.277 3.3125V6.28125L193.809 16.2031C193.613 23.026 194.245 30.0833 195.703 37.375C195.078 37.7917 194.206 38 193.086 38L187.52 37.5312H185.781C184.635 37.5312 184.069 37.1667 184.082 36.4375C183.73 35.5 183.574 34.1979 183.613 32.5312L183.73 28.625L183.945 24.6406C183.958 23.9375 183.594 23.2604 182.852 22.6094C179.323 22.7656 177.552 23.0781 177.539 23.5469L177.383 25.1094L177.715 37.0625C177.702 37.4271 177.122 37.6094 175.977 37.6094H175.02C173.327 37.6094 171.12 37.2708 168.398 36.5938C167.591 33.4297 167.057 25.2005 166.797 11.9062C166.328 8.18229 166.081 5.73438 166.055 4.5625C166.094 3.10417 166.309 2.375 166.699 2.375H169.004ZM198.906 2.16016C204.609 2.61589 207.897 3.16927 208.77 3.82031L208.848 5.10938C209.095 9.08073 208.711 17.1992 207.695 29.4648C207.5 30.4284 207.35 30.9102 207.246 30.9102H203.75C201.732 30.9102 200.124 30.7083 198.926 30.3047L198.828 27.3555L197.637 9.69922C197.741 4.97266 197.995 2.60938 198.398 2.60938C198.555 2.3099 198.724 2.16016 198.906 2.16016ZM199.043 32.2578C203.639 32.4661 206.289 32.6224 206.992 32.7266C206.81 35.9948 206.667 37.6289 206.562 37.6289L203.633 38L199.004 37.4727L198.867 32.3359L198.945 32.2578H199.043Z" fill="black"/>
</svg>
